<?xml version="1.0" encoding="UTF-8" standalone="no"?>
<!DOCTYPE svg PUBLIC "-//W3C//DTD SVG 1.1//EN" "http://www.w3.org/Graphics/SVG/1.1/DTD/svg11.dtd">
<svg width="100%" height="100%" viewBox="0 0 130 200" version="1.1" xmlns="http://www.w3.org/2000/svg" xmlns:xlink="http://www.w3.org/1999/xlink" xml:space="preserve" xmlns:serif="http://www.serif.com/" style="fill-rule:evenodd;clip-rule:evenodd;stroke-linejoin:round;stroke-miterlimit:2;">
    <g transform="matrix(1,0,0,1,-33.3838,-14.1173)">
        <g transform="matrix(0.66757,0,0,0.780131,-9.72516,-7.66395)">
            <path d="M259.312,49.052C259.312,37.389 248.246,27.92 234.617,27.92L89.27,27.92C75.641,27.92 64.576,37.389 64.576,49.052L64.576,263.156C64.576,274.818 75.641,284.287 89.27,284.287L234.617,284.287C248.246,284.287 259.312,274.818 259.312,263.156L259.312,49.052Z" style="fill:rgb(185,114,114);"/>
        </g>
        <g transform="matrix(1.93201,0,0,2.70715,-68.2528,-220.547)">
            <path d="M65.652,124.475L63.742,126.303C63.562,125.694 63.472,125.084 63.472,124.475C63.472,122.537 64.205,120.93 65.67,119.653C67.135,118.375 68.976,117.737 71.195,117.737C71.562,117.737 71.886,117.752 72.168,117.783C72.355,117.799 72.48,117.807 72.543,117.807L72.695,117.807C72.687,118.033 72.683,118.197 72.683,118.299C72.683,119.502 73.207,121.44 74.254,124.112L74.781,125.447C74.851,125.635 74.965,125.944 75.121,126.373L75.554,127.592C75.789,128.233 75.992,128.869 76.164,129.502L76.773,128.494C77.445,127.377 78.047,126.362 78.578,125.447L79.726,123.467L80.617,121.826L81.695,119.858C81.797,119.678 81.996,119.311 82.293,118.756L84.554,117.338C84.054,120.252 83.804,122.592 83.804,124.358L83.652,128.19L83.617,129.631C83.617,130.85 83.697,131.649 83.857,132.028C84.017,132.406 84.359,132.596 84.883,132.596C85.437,132.596 85.933,132.518 86.371,132.362C86.441,132.455 86.476,132.537 86.476,132.608C86.476,132.865 86.211,133.057 85.679,133.182L85.058,133.334L81.73,134.014C81.691,133.28 81.672,132.604 81.672,131.987C81.672,128.002 81.847,124.463 82.199,121.369C81.121,122.901 80.308,124.143 79.761,125.096L79.058,126.303C78.097,127.959 77.32,129.557 76.726,131.096L75.039,132.854C74.929,131.377 74.347,129.303 73.293,126.631L72.836,125.447C72.773,125.307 72.633,124.963 72.414,124.416C71.969,123.338 71.636,122.307 71.418,121.322L70.469,127.123C70.187,128.865 69.894,130.051 69.59,130.68C69.285,131.309 68.746,131.826 67.972,132.233L70.926,132.455L69.426,133.826L64.422,133.569L65.933,132.115L67.258,132.233C67.773,131.85 68.14,131.381 68.359,130.826C68.578,130.272 68.832,129.151 69.121,127.463L70.527,119.225L69.976,119.225C66.726,119.225 65.101,120.299 65.101,122.447C65.101,123.119 65.285,123.795 65.652,124.475Z" style="fill-rule:nonzero;"/>
        </g>
        <g transform="matrix(1.93201,0,0,2.70715,-68.2528,-220.547)">
            <path d="M92.758,130.158C92.969,130.283 93.074,130.405 93.074,130.522C93.074,130.803 92.734,131.358 92.054,132.186C91.14,133.311 90.293,133.873 89.511,133.873C88.941,133.873 88.656,133.494 88.656,132.737C88.656,132.416 88.773,131.432 89.008,129.783L89.465,126.596L89.582,125.787L89.676,125.143C89.715,124.869 89.734,124.639 89.734,124.451C89.734,124.061 89.625,123.865 89.406,123.865C88.797,123.865 88.14,124.537 87.437,125.881C87.289,125.748 87.215,125.615 87.215,125.483C87.215,125.006 87.654,124.365 88.533,123.561C89.412,122.756 90.113,122.354 90.636,122.354C91.222,122.354 91.515,122.76 91.515,123.572C91.515,123.729 91.484,124.049 91.422,124.533L91.316,125.319C91.308,125.381 91.265,125.697 91.187,126.268L90.707,129.619L90.59,130.369C90.488,131.112 90.437,131.608 90.437,131.858C90.437,132.194 90.535,132.362 90.73,132.362C91.386,132.362 92.062,131.627 92.758,130.158ZM90.402,120.842L91.386,118.416C92.261,118.057 92.98,117.561 93.543,116.928C93.621,117.037 93.66,117.151 93.66,117.268C93.66,118.315 92.574,119.506 90.402,120.842Z" style="fill-rule:nonzero;"/>
        </g>
        <g transform="matrix(1.93201,0,0,2.70715,-68.2528,-220.547)">
            <path d="M98.933,130.123C99.16,130.233 99.273,130.373 99.273,130.545C99.273,131.108 98.853,131.803 98.013,132.631C97.174,133.459 96.469,133.873 95.898,133.873C95.25,133.873 94.926,133.405 94.926,132.467C94.926,131.897 94.961,131.315 95.031,130.721L95.16,129.678L96.062,121.522C96.344,119.037 97.197,116.963 98.623,115.299C100.049,113.635 101.691,112.803 103.551,112.803C104.004,112.803 104.386,112.842 104.699,112.92L103.035,114.619C102.668,114.494 102.238,114.432 101.746,114.432C100.574,114.432 99.697,114.844 99.115,115.668C98.533,116.492 98.133,117.889 97.914,119.858L96.824,129.678C96.738,130.436 96.695,130.979 96.695,131.307C96.695,132.01 96.816,132.362 97.058,132.362C97.347,132.362 97.687,132.129 98.078,131.664C98.469,131.199 98.754,130.686 98.933,130.123Z" style="fill-rule:nonzero;"/>
        </g>
        <g transform="matrix(1.93201,0,0,2.70715,-68.2528,-220.547)">
            <path d="M105.332,130.123C105.558,130.233 105.672,130.373 105.672,130.545C105.672,131.108 105.252,131.803 104.412,132.631C103.572,133.459 102.867,133.873 102.297,133.873C101.648,133.873 101.324,133.405 101.324,132.467C101.324,131.897 101.359,131.315 101.429,130.721L101.558,129.678L102.461,121.522C102.742,119.037 103.595,116.963 105.021,115.299C106.447,113.635 108.09,112.803 109.949,112.803C110.402,112.803 110.785,112.842 111.097,112.92L109.433,114.619C109.066,114.494 108.636,114.432 108.144,114.432C106.972,114.432 106.095,114.844 105.513,115.668C104.931,116.492 104.531,117.889 104.312,119.858L103.222,129.678C103.136,130.436 103.094,130.979 103.094,131.307C103.094,132.01 103.215,132.362 103.457,132.362C103.746,132.362 104.086,132.129 104.476,131.664C104.867,131.199 105.152,130.686 105.332,130.123Z" style="fill-rule:nonzero;"/>
        </g>
    </g>
</svg>
