<?xml version="1.0" encoding="UTF-8" standalone="no"?>
<!DOCTYPE svg PUBLIC "-//W3C//DTD SVG 1.1//EN" "http://www.w3.org/Graphics/SVG/1.1/DTD/svg11.dtd">
<svg width="100%" height="100%" viewBox="0 0 130 200" version="1.1" xmlns="http://www.w3.org/2000/svg" xmlns:xlink="http://www.w3.org/1999/xlink" xml:space="preserve" xmlns:serif="http://www.serif.com/" style="fill-rule:evenodd;clip-rule:evenodd;stroke-linejoin:round;stroke-miterlimit:2;">
    <g transform="matrix(0.5,0,0,0.5,0,0)">
        <path d="M259.87,31.563C259.87,14.121 245.709,-0.041 228.266,-0.041L32.08,-0.041C14.637,-0.041 0.476,14.121 0.476,31.563L0.476,368.688C0.476,386.13 14.637,400.292 32.08,400.292L228.266,400.292C245.709,400.292 259.87,386.13 259.87,368.688L259.87,31.563Z" style="fill:rgb(0,177,253);"/>
        <g transform="matrix(0.780955,0,0,0.780955,57.3456,3.42402)">
            <g transform="matrix(1,0,0,1,-23.055,167.124)">
                <path d="M58.522,-4.082L59.602,-3.001C79.65,15.646 96.616,24.969 110.501,24.969C113.623,24.969 116.213,24.049 118.274,22.208C120.335,20.368 121.365,18.047 121.365,15.246C121.365,13.965 121.025,12.625 120.345,11.224L130.849,5.462C131.129,6.582 131.269,7.503 131.269,8.223C131.269,13.665 128.698,18.497 123.556,22.719C118.414,26.94 112.522,29.051 105.88,29.051C98.077,29.051 88.793,26.42 78.029,21.158C67.265,15.896 57.141,9.043 47.658,0.6C43.256,1.841 39.035,2.461 34.993,2.461C27.35,2.461 21.048,-0.65 16.086,-6.873C11.124,-13.095 8.643,-21.028 8.643,-30.671C8.643,-44.797 13.415,-57.071 22.959,-67.495C32.502,-77.919 43.756,-83.131 56.721,-83.131C64.804,-83.131 71.327,-80.09 76.289,-74.008C81.25,-67.925 83.731,-59.942 83.731,-50.059C83.731,-30.371 75.328,-15.046 58.522,-4.082ZM56.061,-6.602C66.945,-14.125 72.387,-26.65 72.387,-44.177C72.387,-53.94 70.196,-62.073 65.815,-68.576C61.433,-75.078 55.961,-78.329 49.398,-78.329C41.035,-78.329 34.053,-74.358 28.451,-66.415C22.849,-58.472 20.048,-48.558 20.048,-36.674C20.048,-26.27 22.158,-18.087 26.38,-12.125C30.601,-6.162 36.574,-2.921 44.297,-2.401L52.52,-10.864C53.04,-10.264 53.38,-9.884 53.54,-9.724L55.221,-7.563C55.341,-7.443 55.621,-7.123 56.061,-6.602Z" style="fill-rule:nonzero;"/>
                <path d="M134.93,-23.589C130.369,-16.586 125.227,-10.644 119.505,-5.762C113.783,-0.88 109.121,1.561 105.519,1.561C101.558,1.561 99.577,-1.08 99.577,-6.362C99.577,-8.323 99.837,-11.544 100.358,-16.026L102.518,-35.713C102.558,-35.993 102.658,-37.154 102.818,-39.195L103.179,-43.096C103.299,-44.257 103.359,-45.297 103.359,-46.217C103.359,-48.538 102.698,-49.699 101.378,-49.699C98.337,-49.699 95.056,-46.277 91.534,-39.435C90.774,-40.035 90.394,-40.675 90.394,-41.355C90.394,-43.836 92.605,-47.138 97.026,-51.259C101.448,-55.381 104.959,-57.441 107.56,-57.441C110.881,-57.441 112.542,-55.161 112.542,-50.599C112.542,-49.519 112.462,-48.258 112.302,-46.818L111.762,-42.196L111.222,-37.154L109.301,-19.987C108.981,-17.066 108.821,-14.105 108.821,-11.104C108.821,-8.343 109.841,-6.963 111.882,-6.963C116.404,-6.963 121.515,-10.684 127.218,-18.127C132.92,-25.57 136.291,-32.932 137.331,-40.215L139.372,-54.44L149.096,-57.742C147.975,-53.1 147.135,-48.958 146.575,-45.317L142.974,-20.228C142.773,-18.707 142.613,-17.427 142.493,-16.386L142.073,-13.085C141.833,-11.044 141.713,-9.604 141.713,-8.763C141.713,-7.043 142.193,-6.182 143.154,-6.182C146.555,-6.182 150.016,-9.944 153.537,-17.467C154.618,-16.826 155.158,-16.186 155.158,-15.546C155.158,-14.145 153.417,-11.324 149.936,-7.083C145.254,-1.32 140.913,1.561 136.911,1.561C133.99,1.561 132.53,-0.4 132.53,-4.322C132.53,-5.562 132.67,-7.223 132.95,-9.303L133.61,-14.105C133.97,-16.706 134.21,-18.467 134.33,-19.387L134.93,-23.589Z" style="fill-rule:nonzero;"/>
                <path d="M189.491,-17.467C190.571,-16.826 191.112,-16.206 191.112,-15.606C191.112,-14.165 189.371,-11.324 185.89,-7.083C181.208,-1.32 176.866,1.561 172.865,1.561C169.944,1.561 168.483,-0.38 168.483,-4.262C168.483,-5.902 169.083,-10.944 170.284,-19.387L172.625,-35.713L173.225,-39.855L173.705,-43.156C173.905,-44.557 174.005,-45.737 174.005,-46.697C174.005,-48.698 173.445,-49.699 172.324,-49.699C169.203,-49.699 165.842,-46.257 162.241,-39.375C161.48,-40.055 161.1,-40.735 161.1,-41.415C161.1,-43.856 163.351,-47.138 167.853,-51.259C172.354,-55.381 175.946,-57.441 178.627,-57.441C181.628,-57.441 183.129,-55.361 183.129,-51.199C183.129,-50.399 182.968,-48.758 182.648,-46.277L182.108,-42.256C182.068,-41.936 181.848,-40.315 181.448,-37.394L178.987,-20.228L178.387,-16.386C177.867,-12.585 177.606,-10.044 177.606,-8.763C177.606,-7.043 178.107,-6.182 179.107,-6.182C182.468,-6.182 185.93,-9.944 189.491,-17.467ZM177.426,-65.184L182.468,-77.609C186.95,-79.45 190.631,-81.991 193.512,-85.232C193.913,-84.672 194.113,-84.091 194.113,-83.491C194.113,-78.129 188.551,-72.027 177.426,-65.184Z" style="fill-rule:nonzero;"/>
                <path d="M193.212,1.26L198.194,-8.343C200.475,-10.744 202.676,-13.305 204.797,-16.026L208.638,-20.768C209.919,-22.408 210.899,-23.629 211.579,-24.429L214.34,-27.79C215.221,-28.871 216.621,-30.671 218.542,-33.192L223.944,-40.155L228.566,-46.277C228.886,-46.637 229.346,-47.198 229.946,-47.958C229.146,-47.878 228.566,-47.838 228.205,-47.838C225.404,-47.838 221.603,-48.518 216.801,-49.879L214.64,-50.479L212.84,-51.079C211.719,-51.399 210.739,-51.559 209.899,-51.559C207.097,-51.559 205.697,-49.979 205.697,-46.818C205.697,-45.617 206.017,-44.397 206.657,-43.156L199.635,-37.094C199.475,-38.454 199.395,-39.455 199.395,-40.095C199.395,-44.737 200.945,-48.788 204.046,-52.25C207.148,-55.711 210.779,-57.441 214.94,-57.441C216.061,-57.441 217.481,-57.281 219.202,-56.961L222.683,-56.361L225.564,-55.941C228.886,-55.381 231.207,-55.101 232.527,-55.101C235.488,-55.101 238.629,-55.761 241.951,-57.081L236.729,-47.478C233.767,-44.197 230.746,-40.655 227.665,-36.854L222.923,-30.912L218.722,-25.69L215.961,-22.268L213.44,-19.207C211.119,-16.366 209.819,-14.746 209.538,-14.345L206.657,-10.204C206.337,-9.764 205.597,-8.843 204.437,-7.443C206.637,-7.683 208.458,-7.803 209.899,-7.803C212.46,-7.803 215.321,-7.583 218.482,-7.143L222.383,-6.602L226.045,-6.122C227.485,-5.922 228.946,-5.822 230.426,-5.822C234.148,-5.822 236.869,-6.983 238.589,-9.303C239.27,-8.663 239.61,-8.083 239.61,-7.563C239.61,-5.482 238.469,-3.491 236.188,-1.591C233.908,0.31 231.507,1.26 228.986,1.26C227.825,1.26 226.365,1.16 224.604,0.96C223.123,0.8 221.823,0.68 220.703,0.6L217.161,0.36C214.24,0.12 211.379,0 208.578,0C202.776,0 197.654,0.42 193.212,1.26Z" style="fill-rule:nonzero;"/>
            </g>
            <g transform="matrix(1,0,0,1,54.011,263.124)">
                <path d="M7.664,0.539C7.664,-3.086 7.406,-6.531 6.891,-9.797L6.117,-14.766C5.68,-17.594 4.93,-19.047 3.867,-19.125C2.68,-19.219 1.852,-18.039 1.383,-15.586C0.883,-15.727 0.633,-16.039 0.633,-16.523C0.633,-17.711 1.191,-18.992 2.309,-20.367C3.426,-21.742 4.453,-22.43 5.391,-22.43C6.766,-22.43 7.848,-21.297 8.637,-19.031C9.426,-16.766 10.102,-12.875 10.664,-7.359L10.805,-5.93C13.555,-10.977 15.609,-15.586 16.969,-19.758L19.758,-22.43C19.945,-20.32 20.125,-18.688 20.297,-17.531L20.859,-13.781L21.258,-11.156L22.289,-5.156L22.852,-6.07C26.461,-11.977 28.266,-15.766 28.266,-17.438C28.266,-18.344 27.789,-19.117 26.836,-19.758L29.672,-22.43C30.828,-21.789 31.406,-20.938 31.406,-19.875C31.406,-18.594 30.516,-16.477 28.734,-13.523L27.305,-11.156L25.547,-8.086C24.281,-5.883 23.359,-3.922 22.781,-2.203L19.969,0.609C19.75,-2.203 19.367,-5.164 18.82,-8.273L18.422,-10.477L17.414,-15.961L16.313,-13.945C14.313,-10.289 12.625,-6.547 11.25,-2.719L7.664,0.539Z" style="fill-rule:nonzero;"/>
                <path d="M43.969,-6.82C44.391,-6.57 44.602,-6.328 44.602,-6.094C44.602,-5.531 43.922,-4.422 42.563,-2.766C40.734,-0.516 39.039,0.609 37.477,0.609C36.336,0.609 35.766,-0.148 35.766,-1.664C35.766,-2.305 36,-4.273 36.469,-7.57L37.383,-13.945L37.617,-15.563L37.805,-16.852C37.883,-17.398 37.922,-17.859 37.922,-18.234C37.922,-19.016 37.703,-19.406 37.266,-19.406C36.047,-19.406 34.734,-18.063 33.328,-15.375C33.031,-15.641 32.883,-15.906 32.883,-16.172C32.883,-17.125 33.762,-18.406 35.52,-20.016C37.277,-21.625 38.68,-22.43 39.727,-22.43C40.898,-22.43 41.484,-21.617 41.484,-19.992C41.484,-19.68 41.422,-19.039 41.297,-18.07L41.086,-16.5C41.07,-16.375 40.984,-15.742 40.828,-14.602L39.867,-7.898L39.633,-6.398C39.43,-4.914 39.328,-3.922 39.328,-3.422C39.328,-2.75 39.523,-2.414 39.914,-2.414C41.227,-2.414 42.578,-3.883 43.969,-6.82ZM39.258,-25.453L41.227,-30.305C42.977,-31.023 44.414,-32.016 45.539,-33.281C45.695,-33.063 45.773,-32.836 45.773,-32.602C45.773,-30.508 43.602,-28.125 39.258,-25.453Z" style="fill-rule:nonzero;"/>
                <path d="M54.164,-19.102L52.992,-8.742C52.789,-6.883 52.688,-5.508 52.688,-4.617C52.688,-2.852 53.289,-1.969 54.492,-1.969C55.789,-1.969 57.133,-3.031 58.523,-5.156C58.758,-4.859 58.875,-4.594 58.875,-4.359C58.875,-3.484 58.105,-2.438 56.566,-1.219C55.027,0 53.703,0.609 52.594,0.609C50.375,0.609 49.266,-0.813 49.266,-3.656C49.266,-4.703 49.398,-6.398 49.664,-8.742L50.813,-19.102L45.867,-19.102L48.609,-21.82L51.117,-21.82L51.609,-26.086L55.055,-27.234L54.469,-21.82L64.406,-21.82L61.664,-19.102L54.164,-19.102Z" style="fill-rule:nonzero;"/>
                <path d="M69.914,-12.938C71.742,-15.688 73.754,-17.957 75.949,-19.746C78.145,-21.535 80.023,-22.43 81.586,-22.43C83.102,-22.43 83.859,-21.375 83.859,-19.266C83.859,-18.641 83.766,-17.68 83.578,-16.383L82.336,-7.641C82.086,-5.891 81.961,-4.508 81.961,-3.492C81.961,-2.68 82.18,-2.273 82.617,-2.273C83.695,-2.273 85.016,-3.711 86.578,-6.586C86.969,-6.352 87.164,-6.109 87.164,-5.859C87.164,-4.844 86.293,-3.512 84.551,-1.863C82.809,-0.215 81.391,0.609 80.297,0.609C79.078,0.609 78.469,-0.266 78.469,-2.016C78.469,-3.297 78.633,-5.07 78.961,-7.336L79.758,-13.008C80.023,-14.867 80.156,-16.344 80.156,-17.438C80.156,-18.641 79.727,-19.242 78.867,-19.242C76.867,-19.242 74.844,-17.887 72.797,-15.176C70.75,-12.465 69.547,-9.555 69.188,-6.445L68.578,-0.82L65.086,0.609L65.156,-0.047L65.344,-1.781L65.531,-3.422L67.805,-23.953C68.352,-28.797 70.148,-32.934 73.195,-36.363C76.242,-39.793 79.648,-41.508 83.414,-41.508C84.195,-41.508 84.953,-41.422 85.688,-41.25L82.242,-37.875C81.352,-38.141 80.508,-38.273 79.711,-38.273C75.07,-38.273 72.344,-34.648 71.531,-27.398L69.914,-12.938Z" style="fill-rule:nonzero;"/>
            </g>
            <g transform="matrix(1,0,0,1,22.054,311.124)">
                <path d="M22.852,-1.594L23.273,-1.172C31.102,6.109 37.727,9.75 43.148,9.75C44.367,9.75 45.379,9.391 46.184,8.672C46.988,7.953 47.391,7.047 47.391,5.953C47.391,5.453 47.258,4.93 46.992,4.383L51.094,2.133C51.203,2.57 51.258,2.93 51.258,3.211C51.258,5.336 50.254,7.223 48.246,8.871C46.238,10.52 43.938,11.344 41.344,11.344C38.297,11.344 34.672,10.316 30.469,8.262C26.266,6.207 22.313,3.531 18.609,0.234C16.891,0.719 15.242,0.961 13.664,0.961C10.68,0.961 8.219,-0.254 6.281,-2.684C4.344,-5.113 3.375,-8.211 3.375,-11.977C3.375,-17.492 5.238,-22.285 8.965,-26.355C12.691,-30.426 17.086,-32.461 22.148,-32.461C25.305,-32.461 27.852,-31.273 29.789,-28.898C31.727,-26.523 32.695,-23.406 32.695,-19.547C32.695,-11.859 29.414,-5.875 22.852,-1.594ZM21.891,-2.578C26.141,-5.516 28.266,-10.406 28.266,-17.25C28.266,-21.063 27.41,-24.238 25.699,-26.777C23.988,-29.316 21.852,-30.586 19.289,-30.586C16.023,-30.586 13.297,-29.035 11.109,-25.934C8.922,-22.832 7.828,-18.961 7.828,-14.32C7.828,-10.258 8.652,-7.063 10.301,-4.734C11.949,-2.406 14.281,-1.141 17.297,-0.938L20.508,-4.242C20.711,-4.008 20.844,-3.859 20.906,-3.797L21.563,-2.953C21.609,-2.906 21.719,-2.781 21.891,-2.578Z" style="fill-rule:nonzero;"/>
                <path d="M52.688,-9.211C50.906,-6.477 48.898,-4.156 46.664,-2.25C44.43,-0.344 42.609,0.609 41.203,0.609C39.656,0.609 38.883,-0.422 38.883,-2.484C38.883,-3.25 38.984,-4.508 39.188,-6.258L40.031,-13.945C40.047,-14.055 40.086,-14.508 40.148,-15.305L40.289,-16.828C40.336,-17.281 40.359,-17.688 40.359,-18.047C40.359,-18.953 40.102,-19.406 39.586,-19.406C38.398,-19.406 37.117,-18.07 35.742,-15.398C35.445,-15.633 35.297,-15.883 35.297,-16.148C35.297,-17.117 36.16,-18.406 37.887,-20.016C39.613,-21.625 40.984,-22.43 42,-22.43C43.297,-22.43 43.945,-21.539 43.945,-19.758C43.945,-19.336 43.914,-18.844 43.852,-18.281L43.641,-16.477L43.43,-14.508L42.68,-7.805C42.555,-6.664 42.492,-5.508 42.492,-4.336C42.492,-3.258 42.891,-2.719 43.688,-2.719C45.453,-2.719 47.449,-4.172 49.676,-7.078C51.902,-9.984 53.219,-12.859 53.625,-15.703L54.422,-21.258L58.219,-22.547C57.781,-20.734 57.453,-19.117 57.234,-17.695L55.828,-7.898C55.75,-7.305 55.688,-6.805 55.641,-6.398L55.477,-5.109C55.383,-4.313 55.336,-3.75 55.336,-3.422C55.336,-2.75 55.523,-2.414 55.898,-2.414C57.227,-2.414 58.578,-3.883 59.953,-6.82C60.375,-6.57 60.586,-6.32 60.586,-6.07C60.586,-5.523 59.906,-4.422 58.547,-2.766C56.719,-0.516 55.023,0.609 53.461,0.609C52.32,0.609 51.75,-0.156 51.75,-1.688C51.75,-2.172 51.805,-2.82 51.914,-3.633L52.172,-5.508C52.313,-6.523 52.406,-7.211 52.453,-7.57L52.688,-9.211Z" style="fill-rule:nonzero;"/>
                <path d="M77.203,-9.305C75.438,-6.398 73.496,-4.02 71.379,-2.168C69.262,-0.316 67.422,0.609 65.859,0.609C63.719,0.609 62.648,-1.117 62.648,-4.57C62.648,-9.32 64.207,-13.434 67.324,-16.91C70.441,-20.387 74.133,-22.125 78.398,-22.125C80.023,-22.125 81.406,-21.922 82.547,-21.516C82.469,-21.234 82.422,-21.063 82.406,-21L82.125,-19.758C81.938,-18.898 81.836,-18.398 81.82,-18.258L80.32,-7.898L80.109,-6.398C79.906,-4.914 79.805,-3.922 79.805,-3.422C79.805,-2.75 80,-2.414 80.391,-2.414C81.703,-2.414 83.047,-3.883 84.422,-6.82C84.844,-6.57 85.055,-6.32 85.055,-6.07C85.055,-5.523 84.383,-4.422 83.039,-2.766C81.211,-0.516 79.516,0.609 77.953,0.609C76.813,0.609 76.242,-0.156 76.242,-1.688C76.242,-2.156 76.297,-2.805 76.406,-3.633L76.641,-5.508L76.945,-7.57L77.203,-9.305ZM78.539,-18.609C77.117,-19.406 75.68,-19.805 74.227,-19.805C72.039,-19.805 70.203,-18.469 68.719,-15.797C67.234,-13.125 66.492,-9.813 66.492,-5.859C66.492,-3.828 67.094,-2.813 68.297,-2.813C69.688,-2.813 71.367,-3.875 73.336,-6C75.992,-8.859 77.602,-12.219 78.164,-16.078L78.539,-18.609Z" style="fill-rule:nonzero;"/>
                <path d="M94.922,-12.563C98.391,-19.141 101.805,-22.43 105.164,-22.43C106.039,-22.43 106.914,-22.227 107.789,-21.82L104.484,-18.211C103.984,-18.492 103.344,-18.633 102.563,-18.633C100.938,-18.633 99.223,-17.316 97.418,-14.684C95.613,-12.051 94.555,-9.313 94.242,-6.469L93.609,-0.75L90.141,0.422L90.211,-0.281L90.375,-1.805L90.563,-3.328L91.781,-14.484L91.922,-15.703C92.031,-16.625 92.086,-17.375 92.086,-17.953C92.086,-18.906 91.82,-19.383 91.289,-19.383C90.039,-19.383 88.797,-18.047 87.563,-15.375C87.172,-15.672 86.984,-15.977 87,-16.289C87.047,-17.242 87.918,-18.504 89.613,-20.074C91.309,-21.645 92.648,-22.43 93.633,-22.43C94.961,-22.43 95.625,-21.555 95.625,-19.805C95.625,-19.383 95.586,-18.813 95.508,-18.094L95.344,-16.453L95.133,-14.484L94.922,-12.563Z" style="fill-rule:nonzero;"/>
                <path d="M114.914,-12.563C118.383,-19.141 121.797,-22.43 125.156,-22.43C126.031,-22.43 126.906,-22.227 127.781,-21.82L124.477,-18.211C123.977,-18.492 123.336,-18.633 122.555,-18.633C120.93,-18.633 119.215,-17.316 117.41,-14.684C115.605,-12.051 114.547,-9.313 114.234,-6.469L113.602,-0.75L110.133,0.422L110.203,-0.281L110.367,-1.805L110.555,-3.328L111.773,-14.484L111.914,-15.703C112.023,-16.625 112.078,-17.375 112.078,-17.953C112.078,-18.906 111.813,-19.383 111.281,-19.383C110.031,-19.383 108.789,-18.047 107.555,-15.375C107.164,-15.672 106.977,-15.977 106.992,-16.289C107.039,-17.242 107.91,-18.504 109.605,-20.074C111.301,-21.645 112.641,-22.43 113.625,-22.43C114.953,-22.43 115.617,-21.555 115.617,-19.805C115.617,-19.383 115.578,-18.813 115.5,-18.094L115.336,-16.453L115.125,-14.484L114.914,-12.563Z" style="fill-rule:nonzero;"/>
                <path d="M144.422,-9.328C142.844,-6.453 141.191,-4.078 139.465,-2.203C137.738,-0.328 136.328,0.609 135.234,0.609C133.734,0.609 132.906,-0.969 132.75,-4.125L132.586,-7.383L132.281,-14.016L132.211,-15.914C132.07,-18.43 131.609,-19.688 130.828,-19.688C129.609,-19.688 128.422,-18.531 127.266,-16.219C126.859,-16.5 126.656,-16.805 126.656,-17.133C126.656,-17.977 127.414,-19.07 128.93,-20.414C130.445,-21.758 131.68,-22.43 132.633,-22.43C133.617,-22.43 134.313,-21.988 134.719,-21.105C135.125,-20.223 135.391,-18.594 135.516,-16.219L135.938,-8.016C136.094,-4.891 136.594,-3.328 137.438,-3.328C138.703,-3.328 140.273,-4.777 142.148,-7.676C144.023,-10.574 145.227,-13.422 145.758,-16.219L146.672,-21L150.844,-22.453C150.313,-21.078 149.766,-19 149.203,-16.219L146.063,-0.492C144.828,5.664 142.922,10.211 140.344,13.148C136.484,17.523 132.016,19.711 126.938,19.711C125.875,19.711 124.68,19.477 123.352,19.008L126.234,15.844C127.703,16.5 129.234,16.828 130.828,16.828C134.078,16.828 136.516,15.773 138.141,13.664C139.766,11.555 141.125,7.688 142.219,2.063L144.422,-9.328Z" style="fill-rule:nonzero;"/>
            </g>
            <g transform="matrix(1,0,0,1,43.171,359.124)">
                <path d="M4.641,-0.563L7.617,-3.727L8.344,-3.563C9.281,-3.328 10.172,-3.156 11.016,-3.047C12.281,-3.828 13.137,-4.77 13.582,-5.871C14.027,-6.973 14.43,-9.117 14.789,-12.305L16.758,-29.953C13.508,-29.719 10.914,-28.844 8.977,-27.328C7.039,-25.813 6.07,-23.906 6.07,-21.609C6.07,-20.234 6.414,-18.938 7.102,-17.719L3.328,-14.391C3,-15.594 2.836,-16.813 2.836,-18.047C2.836,-22.266 4.637,-25.723 8.238,-28.418C11.84,-31.113 16.445,-32.461 22.055,-32.461C29.289,-32.461 32.906,-30.383 32.906,-26.227C32.906,-22.68 30.57,-19.844 25.898,-17.719C30.461,-15.938 32.742,-13.203 32.742,-9.516C32.742,-6.516 31.219,-4.125 28.172,-2.344C25.125,-0.563 21.047,0.328 15.938,0.328C12.797,0.328 9.031,0.031 4.641,-0.563ZM20.555,-30.141L19.172,-17.719C20.094,-17.641 20.891,-17.602 21.563,-17.602C22.313,-17.602 23.211,-17.656 24.258,-17.766C27.586,-19.688 29.25,-22 29.25,-24.703C29.25,-28.328 26.352,-30.141 20.555,-30.141ZM18.961,-15.844L18.609,-12.703L18.398,-10.734C18.133,-8.406 17.668,-6.77 17.004,-5.824C16.34,-4.879 14.93,-3.859 12.773,-2.766C15.867,-2.266 18.922,-2.016 21.938,-2.016C26.813,-2.016 29.25,-3.953 29.25,-7.828C29.25,-9.5 28.582,-11.113 27.246,-12.668C25.91,-14.223 24.281,-15.281 22.359,-15.844L21.75,-15.82L20.625,-15.773L19.594,-15.82L18.961,-15.844Z" style="fill-rule:nonzero;"/>
                <path d="M51.68,-9.305C49.914,-6.398 47.973,-4.02 45.855,-2.168C43.738,-0.316 41.898,0.609 40.336,0.609C38.195,0.609 37.125,-1.117 37.125,-4.57C37.125,-9.32 38.684,-13.434 41.801,-16.91C44.918,-20.387 48.609,-22.125 52.875,-22.125C54.5,-22.125 55.883,-21.922 57.023,-21.516C56.945,-21.234 56.898,-21.063 56.883,-21L56.602,-19.758C56.414,-18.898 56.313,-18.398 56.297,-18.258L54.797,-7.898L54.586,-6.398C54.383,-4.914 54.281,-3.922 54.281,-3.422C54.281,-2.75 54.477,-2.414 54.867,-2.414C56.18,-2.414 57.523,-3.883 58.898,-6.82C59.32,-6.57 59.531,-6.32 59.531,-6.07C59.531,-5.523 58.859,-4.422 57.516,-2.766C55.688,-0.516 53.992,0.609 52.43,0.609C51.289,0.609 50.719,-0.156 50.719,-1.688C50.719,-2.156 50.773,-2.805 50.883,-3.633L51.117,-5.508L51.422,-7.57L51.68,-9.305ZM53.016,-18.609C51.594,-19.406 50.156,-19.805 48.703,-19.805C46.516,-19.805 44.68,-18.469 43.195,-15.797C41.711,-13.125 40.969,-9.813 40.969,-5.859C40.969,-3.828 41.57,-2.813 42.773,-2.813C44.164,-2.813 45.844,-3.875 47.813,-6C50.469,-8.859 52.078,-12.219 52.641,-16.078L53.016,-18.609Z" style="fill-rule:nonzero;"/>
                <path d="M68.063,-0.82L64.57,0.609L64.641,-0.047L64.828,-1.781L65.016,-3.422L66.234,-14.297L66.375,-15.539C66.469,-16.508 66.516,-17.289 66.516,-17.883C66.516,-18.883 66.266,-19.383 65.766,-19.383C64.594,-19.383 63.336,-18.055 61.992,-15.398C61.633,-15.695 61.453,-15.953 61.453,-16.172C61.453,-17.109 62.309,-18.387 64.02,-20.004C65.73,-21.621 67.078,-22.43 68.063,-22.43C69.406,-22.43 70.078,-21.57 70.078,-19.852C70.078,-19.414 70.039,-18.828 69.961,-18.094L69.773,-16.195L69.586,-14.602L69.398,-12.938C71.242,-15.688 73.262,-17.957 75.457,-19.746C77.652,-21.535 79.523,-22.43 81.07,-22.43C82.586,-22.43 83.344,-21.375 83.344,-19.266C83.344,-18.625 83.258,-17.664 83.086,-16.383L81.82,-7.641C81.57,-5.891 81.445,-4.508 81.445,-3.492C81.445,-2.68 81.664,-2.273 82.102,-2.273C83.18,-2.273 84.508,-3.711 86.086,-6.586C86.461,-6.352 86.648,-6.109 86.648,-5.859C86.648,-4.844 85.777,-3.512 84.035,-1.863C82.293,-0.215 80.875,0.609 79.781,0.609C78.563,0.609 77.953,-0.266 77.953,-2.016C77.953,-3.297 78.117,-5.07 78.445,-7.336L79.266,-13.008C79.531,-14.852 79.664,-16.313 79.664,-17.391C79.664,-18.625 79.234,-19.242 78.375,-19.242C76.375,-19.242 74.348,-17.887 72.293,-15.176C70.238,-12.465 69.039,-9.555 68.695,-6.445L68.063,-0.82Z" style="fill-rule:nonzero;"/>
                <path d="M95.156,-14.742C96.328,-16.93 97.801,-18.758 99.574,-20.227C101.348,-21.695 102.977,-22.43 104.461,-22.43C106.461,-22.43 107.461,-21.398 107.461,-19.336C107.461,-17.367 106.629,-15.566 104.965,-13.934C103.301,-12.301 101.102,-11.125 98.367,-10.406C101.336,-5.078 103.547,-2.414 105,-2.414C106.047,-2.414 107.148,-3.328 108.305,-5.156C108.664,-4.891 108.844,-4.633 108.844,-4.383C108.844,-3.648 108.125,-2.641 106.688,-1.359C105.25,-0.078 104.094,0.578 103.219,0.609C101.656,0.688 99,-2.633 95.25,-9.352L94.664,-10.406L93.609,-0.82L90.117,0.609L90.188,-0.047L90.375,-1.781L90.563,-3.422L92.859,-23.953C93.391,-28.813 95.18,-32.953 98.227,-36.375C101.273,-39.797 104.688,-41.508 108.469,-41.508C109.25,-41.508 110,-41.422 110.719,-41.25L107.273,-37.875C106.383,-38.141 105.539,-38.273 104.742,-38.273C100.102,-38.273 97.375,-34.648 96.563,-27.398L95.156,-14.742ZM94.734,-11.109C97.25,-11.109 99.352,-11.676 101.039,-12.809C102.727,-13.941 103.57,-15.344 103.57,-17.016C103.57,-18.703 102.977,-19.547 101.789,-19.547C100.695,-19.547 99.48,-18.746 98.145,-17.145C96.809,-15.543 95.672,-13.531 94.734,-11.109Z" style="fill-rule:nonzero;"/>
            </g>
            <g transform="matrix(1,0,0,1,35.929,407.124)">
                <path d="M20.883,-31.523C20.18,-27.945 19.758,-25.539 19.617,-24.305L18.891,-17.813L31.969,-17.813L32.063,-18.656C33.078,-27.734 34.875,-33.906 37.453,-37.172C40.609,-41.172 44.109,-43.172 47.953,-43.172C49.391,-43.172 50.727,-42.922 51.961,-42.422L48.492,-39.023C47.18,-39.914 45.875,-40.359 44.578,-40.359C41.938,-40.359 40.102,-39.051 39.07,-36.434C38.039,-33.816 37.016,-27.891 36,-18.656L35.648,-15.469C35.211,-11.359 34.992,-8.18 34.992,-5.93C34.992,-4.602 35.563,-3.938 36.703,-3.938C37.547,-3.938 38.594,-4.297 39.844,-5.016C39.906,-4.734 39.938,-4.539 39.938,-4.43C39.938,-3.961 39.523,-3.539 38.695,-3.164L37.336,-2.531L30.445,0.609C30.445,-2.281 30.82,-7.195 31.57,-14.133L31.664,-14.977L18.586,-14.977L18.352,-12.844L18.047,-10.242C17.781,-8.023 17.301,-6.422 16.605,-5.438C15.91,-4.453 14.578,-3.492 12.609,-2.555L18.141,-2.203L15.328,0.516L5.18,0L8.18,-2.906L10.734,-2.625C11.969,-3.422 12.82,-4.418 13.289,-5.613C13.758,-6.809 14.164,-9.031 14.508,-12.281L16.313,-28.688L15.586,-28.688C9.086,-28.688 5.836,-26.539 5.836,-22.242C5.836,-20.898 6.203,-19.547 6.938,-18.188L3.117,-14.531C2.758,-15.75 2.578,-16.961 2.578,-18.164C2.578,-22.195 4.078,-25.43 7.078,-27.867C10.078,-30.305 14.063,-31.523 19.031,-31.523L20.883,-31.523Z" style="fill-rule:nonzero;"/>
                <path d="M48.328,0.609C44.813,0.609 43.055,-1.719 43.055,-6.375C43.055,-10.125 44.43,-13.738 47.18,-17.215C49.93,-20.691 52.781,-22.43 55.734,-22.43C59.297,-22.43 61.078,-20.102 61.078,-15.445C61.078,-11.68 59.703,-8.063 56.953,-4.594C54.203,-1.125 51.328,0.609 48.328,0.609ZM51.164,-2.016C52.961,-2.016 54.465,-3.016 55.676,-5.016C56.887,-7.016 57.492,-9.508 57.492,-12.492C57.492,-17.367 55.977,-19.805 52.945,-19.805C51.164,-19.805 49.668,-18.801 48.457,-16.793C47.246,-14.785 46.641,-12.297 46.641,-9.328C46.641,-4.453 48.148,-2.016 51.164,-2.016Z" style="fill-rule:nonzero;"/>
                <path d="M80.672,-9.211C78.891,-6.477 76.883,-4.156 74.648,-2.25C72.414,-0.344 70.594,0.609 69.188,0.609C67.641,0.609 66.867,-0.422 66.867,-2.484C66.867,-3.25 66.969,-4.508 67.172,-6.258L68.016,-13.945C68.031,-14.055 68.07,-14.508 68.133,-15.305L68.273,-16.828C68.32,-17.281 68.344,-17.688 68.344,-18.047C68.344,-18.953 68.086,-19.406 67.57,-19.406C66.383,-19.406 65.102,-18.07 63.727,-15.398C63.43,-15.633 63.281,-15.883 63.281,-16.148C63.281,-17.117 64.145,-18.406 65.871,-20.016C67.598,-21.625 68.969,-22.43 69.984,-22.43C71.281,-22.43 71.93,-21.539 71.93,-19.758C71.93,-19.336 71.898,-18.844 71.836,-18.281L71.625,-16.477L71.414,-14.508L70.664,-7.805C70.539,-6.664 70.477,-5.508 70.477,-4.336C70.477,-3.258 70.875,-2.719 71.672,-2.719C73.438,-2.719 75.434,-4.172 77.66,-7.078C79.887,-9.984 81.203,-12.859 81.609,-15.703L82.406,-21.258L86.203,-22.547C85.766,-20.734 85.438,-19.117 85.219,-17.695L83.813,-7.898C83.734,-7.305 83.672,-6.805 83.625,-6.398L83.461,-5.109C83.367,-4.313 83.32,-3.75 83.32,-3.422C83.32,-2.75 83.508,-2.414 83.883,-2.414C85.211,-2.414 86.563,-3.883 87.938,-6.82C88.359,-6.57 88.57,-6.32 88.57,-6.07C88.57,-5.523 87.891,-4.422 86.531,-2.766C84.703,-0.516 83.008,0.609 81.445,0.609C80.305,0.609 79.734,-0.156 79.734,-1.688C79.734,-2.172 79.789,-2.82 79.898,-3.633L80.156,-5.508C80.297,-6.523 80.391,-7.211 80.438,-7.57L80.672,-9.211Z" style="fill-rule:nonzero;"/>
                <path d="M89.133,-0.656L92.367,-3.305C93.586,-2.008 95.117,-1.359 96.961,-1.359C99.211,-1.359 100.336,-2.445 100.336,-4.617C100.336,-5.82 99.305,-7.5 97.242,-9.656L95.906,-11.039C93.953,-13.086 92.977,-14.742 92.977,-16.008C92.977,-17.82 93.762,-19.344 95.332,-20.578C96.902,-21.813 98.836,-22.43 101.133,-22.43C102.383,-22.43 103.75,-22.195 105.234,-21.727L102.422,-19.125C101.234,-20.016 99.914,-20.461 98.461,-20.461C96.758,-20.461 95.906,-19.75 95.906,-18.328C95.906,-17.313 96.852,-15.82 98.742,-13.852L100.195,-12.305C102.352,-10.055 103.43,-8.242 103.43,-6.867C103.43,-4.898 102.484,-3.16 100.594,-1.652C98.703,-0.145 96.523,0.609 94.055,0.609C92.305,0.609 90.664,0.188 89.133,-0.656Z" style="fill-rule:nonzero;"/>
                <path d="M121.922,-7.453C122.313,-7.188 122.508,-6.875 122.508,-6.516C122.508,-6.031 122.008,-5.203 121.008,-4.031C118.336,-0.938 115.695,0.609 113.086,0.609C111.492,0.609 110.18,-0.023 109.148,-1.289C108.117,-2.555 107.602,-4.172 107.602,-6.141C107.602,-9.703 108.949,-13.309 111.645,-16.957C114.34,-20.605 117.008,-22.43 119.648,-22.43C121.555,-22.43 122.508,-21.406 122.508,-19.359C122.508,-17.063 121.395,-14.82 119.168,-12.633C116.941,-10.445 114.227,-8.922 111.023,-8.063C111.336,-4.297 112.82,-2.414 115.477,-2.414C118.102,-2.414 120.25,-4.094 121.922,-7.453ZM111.117,-10.922C111.57,-10.766 111.984,-10.688 112.359,-10.688C114.297,-10.688 115.992,-11.281 117.445,-12.469C118.898,-13.656 119.625,-15.047 119.625,-16.641C119.625,-18.469 118.695,-19.383 116.836,-19.383C115.492,-19.383 114.277,-18.582 113.191,-16.98C112.105,-15.379 111.414,-13.359 111.117,-10.922Z" style="fill-rule:nonzero;"/>
            </g>
        </g>
    </g>
</svg>
