<?xml version="1.0" encoding="UTF-8" standalone="no"?>
<!DOCTYPE svg PUBLIC "-//W3C//DTD SVG 1.1//EN" "http://www.w3.org/Graphics/SVG/1.1/DTD/svg11.dtd">
<svg width="100%" height="100%" viewBox="0 0 130 200" version="1.1" xmlns="http://www.w3.org/2000/svg" xmlns:xlink="http://www.w3.org/1999/xlink" xml:space="preserve" xmlns:serif="http://www.serif.com/" style="fill-rule:evenodd;clip-rule:evenodd;stroke-linejoin:round;stroke-miterlimit:2;">
    <g transform="matrix(0.5,0,0,0.5,0,0)">
        <path d="M259.87,31.563C259.87,14.121 245.709,-0.041 228.266,-0.041L32.08,-0.041C14.637,-0.041 0.476,14.121 0.476,31.563L0.476,368.688C0.476,386.13 14.637,400.292 32.08,400.292L228.266,400.292C245.709,400.292 259.87,386.13 259.87,368.688L259.87,31.563Z" style="fill:rgb(67,145,68);"/>
        <g transform="matrix(0.780955,0,0,0.780955,57.3456,3.42402)">
            <g transform="matrix(1,0,0,1,-23.055,167.124)">
                <path d="M58.522,-4.082L59.602,-3.001C79.65,15.646 96.616,24.969 110.501,24.969C113.623,24.969 116.213,24.049 118.274,22.208C120.335,20.368 121.365,18.047 121.365,15.246C121.365,13.965 121.025,12.625 120.345,11.224L130.849,5.462C131.129,6.582 131.269,7.503 131.269,8.223C131.269,13.665 128.698,18.497 123.556,22.719C118.414,26.94 112.522,29.051 105.88,29.051C98.077,29.051 88.793,26.42 78.029,21.158C67.265,15.896 57.141,9.043 47.658,0.6C43.256,1.841 39.035,2.461 34.993,2.461C27.35,2.461 21.048,-0.65 16.086,-6.873C11.124,-13.095 8.643,-21.028 8.643,-30.671C8.643,-44.797 13.415,-57.071 22.959,-67.495C32.502,-77.919 43.756,-83.131 56.721,-83.131C64.804,-83.131 71.327,-80.09 76.289,-74.008C81.25,-67.925 83.731,-59.942 83.731,-50.059C83.731,-30.371 75.328,-15.046 58.522,-4.082ZM56.061,-6.602C66.945,-14.125 72.387,-26.65 72.387,-44.177C72.387,-53.94 70.196,-62.073 65.815,-68.576C61.433,-75.078 55.961,-78.329 49.398,-78.329C41.035,-78.329 34.053,-74.358 28.451,-66.415C22.849,-58.472 20.048,-48.558 20.048,-36.674C20.048,-26.27 22.158,-18.087 26.38,-12.125C30.601,-6.162 36.574,-2.921 44.297,-2.401L52.52,-10.864C53.04,-10.264 53.38,-9.884 53.54,-9.724L55.221,-7.563C55.341,-7.443 55.621,-7.123 56.061,-6.602Z" style="fill-rule:nonzero;"/>
                <path d="M134.93,-23.589C130.369,-16.586 125.227,-10.644 119.505,-5.762C113.783,-0.88 109.121,1.561 105.519,1.561C101.558,1.561 99.577,-1.08 99.577,-6.362C99.577,-8.323 99.837,-11.544 100.358,-16.026L102.518,-35.713C102.558,-35.993 102.658,-37.154 102.818,-39.195L103.179,-43.096C103.299,-44.257 103.359,-45.297 103.359,-46.217C103.359,-48.538 102.698,-49.699 101.378,-49.699C98.337,-49.699 95.056,-46.277 91.534,-39.435C90.774,-40.035 90.394,-40.675 90.394,-41.355C90.394,-43.836 92.605,-47.138 97.026,-51.259C101.448,-55.381 104.959,-57.441 107.56,-57.441C110.881,-57.441 112.542,-55.161 112.542,-50.599C112.542,-49.519 112.462,-48.258 112.302,-46.818L111.762,-42.196L111.222,-37.154L109.301,-19.987C108.981,-17.066 108.821,-14.105 108.821,-11.104C108.821,-8.343 109.841,-6.963 111.882,-6.963C116.404,-6.963 121.515,-10.684 127.218,-18.127C132.92,-25.57 136.291,-32.932 137.331,-40.215L139.372,-54.44L149.096,-57.742C147.975,-53.1 147.135,-48.958 146.575,-45.317L142.974,-20.228C142.773,-18.707 142.613,-17.427 142.493,-16.386L142.073,-13.085C141.833,-11.044 141.713,-9.604 141.713,-8.763C141.713,-7.043 142.193,-6.182 143.154,-6.182C146.555,-6.182 150.016,-9.944 153.537,-17.467C154.618,-16.826 155.158,-16.186 155.158,-15.546C155.158,-14.145 153.417,-11.324 149.936,-7.083C145.254,-1.32 140.913,1.561 136.911,1.561C133.99,1.561 132.53,-0.4 132.53,-4.322C132.53,-5.562 132.67,-7.223 132.95,-9.303L133.61,-14.105C133.97,-16.706 134.21,-18.467 134.33,-19.387L134.93,-23.589Z" style="fill-rule:nonzero;"/>
                <path d="M189.491,-17.467C190.571,-16.826 191.112,-16.206 191.112,-15.606C191.112,-14.165 189.371,-11.324 185.89,-7.083C181.208,-1.32 176.866,1.561 172.865,1.561C169.944,1.561 168.483,-0.38 168.483,-4.262C168.483,-5.902 169.083,-10.944 170.284,-19.387L172.625,-35.713L173.225,-39.855L173.705,-43.156C173.905,-44.557 174.005,-45.737 174.005,-46.697C174.005,-48.698 173.445,-49.699 172.324,-49.699C169.203,-49.699 165.842,-46.257 162.241,-39.375C161.48,-40.055 161.1,-40.735 161.1,-41.415C161.1,-43.856 163.351,-47.138 167.853,-51.259C172.354,-55.381 175.946,-57.441 178.627,-57.441C181.628,-57.441 183.129,-55.361 183.129,-51.199C183.129,-50.399 182.968,-48.758 182.648,-46.277L182.108,-42.256C182.068,-41.936 181.848,-40.315 181.448,-37.394L178.987,-20.228L178.387,-16.386C177.867,-12.585 177.606,-10.044 177.606,-8.763C177.606,-7.043 178.107,-6.182 179.107,-6.182C182.468,-6.182 185.93,-9.944 189.491,-17.467ZM177.426,-65.184L182.468,-77.609C186.95,-79.45 190.631,-81.991 193.512,-85.232C193.913,-84.672 194.113,-84.091 194.113,-83.491C194.113,-78.129 188.551,-72.027 177.426,-65.184Z" style="fill-rule:nonzero;"/>
                <path d="M193.212,1.26L198.194,-8.343C200.475,-10.744 202.676,-13.305 204.797,-16.026L208.638,-20.768C209.919,-22.408 210.899,-23.629 211.579,-24.429L214.34,-27.79C215.221,-28.871 216.621,-30.671 218.542,-33.192L223.944,-40.155L228.566,-46.277C228.886,-46.637 229.346,-47.198 229.946,-47.958C229.146,-47.878 228.566,-47.838 228.205,-47.838C225.404,-47.838 221.603,-48.518 216.801,-49.879L214.64,-50.479L212.84,-51.079C211.719,-51.399 210.739,-51.559 209.899,-51.559C207.097,-51.559 205.697,-49.979 205.697,-46.818C205.697,-45.617 206.017,-44.397 206.657,-43.156L199.635,-37.094C199.475,-38.454 199.395,-39.455 199.395,-40.095C199.395,-44.737 200.945,-48.788 204.046,-52.25C207.148,-55.711 210.779,-57.441 214.94,-57.441C216.061,-57.441 217.481,-57.281 219.202,-56.961L222.683,-56.361L225.564,-55.941C228.886,-55.381 231.207,-55.101 232.527,-55.101C235.488,-55.101 238.629,-55.761 241.951,-57.081L236.729,-47.478C233.767,-44.197 230.746,-40.655 227.665,-36.854L222.923,-30.912L218.722,-25.69L215.961,-22.268L213.44,-19.207C211.119,-16.366 209.819,-14.746 209.538,-14.345L206.657,-10.204C206.337,-9.764 205.597,-8.843 204.437,-7.443C206.637,-7.683 208.458,-7.803 209.899,-7.803C212.46,-7.803 215.321,-7.583 218.482,-7.143L222.383,-6.602L226.045,-6.122C227.485,-5.922 228.946,-5.822 230.426,-5.822C234.148,-5.822 236.869,-6.983 238.589,-9.303C239.27,-8.663 239.61,-8.083 239.61,-7.563C239.61,-5.482 238.469,-3.491 236.188,-1.591C233.908,0.31 231.507,1.26 228.986,1.26C227.825,1.26 226.365,1.16 224.604,0.96C223.123,0.8 221.823,0.68 220.703,0.6L217.161,0.36C214.24,0.12 211.379,0 208.578,0C202.776,0 197.654,0.42 193.212,1.26Z" style="fill-rule:nonzero;"/>
            </g>
            <g transform="matrix(1,0,0,1,54.011,263.124)">
                <path d="M7.664,0.539C7.664,-3.086 7.406,-6.531 6.891,-9.797L6.117,-14.766C5.68,-17.594 4.93,-19.047 3.867,-19.125C2.68,-19.219 1.852,-18.039 1.383,-15.586C0.883,-15.727 0.633,-16.039 0.633,-16.523C0.633,-17.711 1.191,-18.992 2.309,-20.367C3.426,-21.742 4.453,-22.43 5.391,-22.43C6.766,-22.43 7.848,-21.297 8.637,-19.031C9.426,-16.766 10.102,-12.875 10.664,-7.359L10.805,-5.93C13.555,-10.977 15.609,-15.586 16.969,-19.758L19.758,-22.43C19.945,-20.32 20.125,-18.688 20.297,-17.531L20.859,-13.781L21.258,-11.156L22.289,-5.156L22.852,-6.07C26.461,-11.977 28.266,-15.766 28.266,-17.438C28.266,-18.344 27.789,-19.117 26.836,-19.758L29.672,-22.43C30.828,-21.789 31.406,-20.938 31.406,-19.875C31.406,-18.594 30.516,-16.477 28.734,-13.523L27.305,-11.156L25.547,-8.086C24.281,-5.883 23.359,-3.922 22.781,-2.203L19.969,0.609C19.75,-2.203 19.367,-5.164 18.82,-8.273L18.422,-10.477L17.414,-15.961L16.313,-13.945C14.313,-10.289 12.625,-6.547 11.25,-2.719L7.664,0.539Z" style="fill-rule:nonzero;"/>
                <path d="M43.969,-6.82C44.391,-6.57 44.602,-6.328 44.602,-6.094C44.602,-5.531 43.922,-4.422 42.563,-2.766C40.734,-0.516 39.039,0.609 37.477,0.609C36.336,0.609 35.766,-0.148 35.766,-1.664C35.766,-2.305 36,-4.273 36.469,-7.57L37.383,-13.945L37.617,-15.563L37.805,-16.852C37.883,-17.398 37.922,-17.859 37.922,-18.234C37.922,-19.016 37.703,-19.406 37.266,-19.406C36.047,-19.406 34.734,-18.063 33.328,-15.375C33.031,-15.641 32.883,-15.906 32.883,-16.172C32.883,-17.125 33.762,-18.406 35.52,-20.016C37.277,-21.625 38.68,-22.43 39.727,-22.43C40.898,-22.43 41.484,-21.617 41.484,-19.992C41.484,-19.68 41.422,-19.039 41.297,-18.07L41.086,-16.5C41.07,-16.375 40.984,-15.742 40.828,-14.602L39.867,-7.898L39.633,-6.398C39.43,-4.914 39.328,-3.922 39.328,-3.422C39.328,-2.75 39.523,-2.414 39.914,-2.414C41.227,-2.414 42.578,-3.883 43.969,-6.82ZM39.258,-25.453L41.227,-30.305C42.977,-31.023 44.414,-32.016 45.539,-33.281C45.695,-33.063 45.773,-32.836 45.773,-32.602C45.773,-30.508 43.602,-28.125 39.258,-25.453Z" style="fill-rule:nonzero;"/>
                <path d="M54.164,-19.102L52.992,-8.742C52.789,-6.883 52.688,-5.508 52.688,-4.617C52.688,-2.852 53.289,-1.969 54.492,-1.969C55.789,-1.969 57.133,-3.031 58.523,-5.156C58.758,-4.859 58.875,-4.594 58.875,-4.359C58.875,-3.484 58.105,-2.438 56.566,-1.219C55.027,0 53.703,0.609 52.594,0.609C50.375,0.609 49.266,-0.813 49.266,-3.656C49.266,-4.703 49.398,-6.398 49.664,-8.742L50.813,-19.102L45.867,-19.102L48.609,-21.82L51.117,-21.82L51.609,-26.086L55.055,-27.234L54.469,-21.82L64.406,-21.82L61.664,-19.102L54.164,-19.102Z" style="fill-rule:nonzero;"/>
                <path d="M69.914,-12.938C71.742,-15.688 73.754,-17.957 75.949,-19.746C78.145,-21.535 80.023,-22.43 81.586,-22.43C83.102,-22.43 83.859,-21.375 83.859,-19.266C83.859,-18.641 83.766,-17.68 83.578,-16.383L82.336,-7.641C82.086,-5.891 81.961,-4.508 81.961,-3.492C81.961,-2.68 82.18,-2.273 82.617,-2.273C83.695,-2.273 85.016,-3.711 86.578,-6.586C86.969,-6.352 87.164,-6.109 87.164,-5.859C87.164,-4.844 86.293,-3.512 84.551,-1.863C82.809,-0.215 81.391,0.609 80.297,0.609C79.078,0.609 78.469,-0.266 78.469,-2.016C78.469,-3.297 78.633,-5.07 78.961,-7.336L79.758,-13.008C80.023,-14.867 80.156,-16.344 80.156,-17.438C80.156,-18.641 79.727,-19.242 78.867,-19.242C76.867,-19.242 74.844,-17.887 72.797,-15.176C70.75,-12.465 69.547,-9.555 69.188,-6.445L68.578,-0.82L65.086,0.609L65.156,-0.047L65.344,-1.781L65.531,-3.422L67.805,-23.953C68.352,-28.797 70.148,-32.934 73.195,-36.363C76.242,-39.793 79.648,-41.508 83.414,-41.508C84.195,-41.508 84.953,-41.422 85.688,-41.25L82.242,-37.875C81.352,-38.141 80.508,-38.273 79.711,-38.273C75.07,-38.273 72.344,-34.648 71.531,-27.398L69.914,-12.938Z" style="fill-rule:nonzero;"/>
            </g>
            <g transform="matrix(1,0,0,1,0.644,311.124)">
                <path d="M20.813,-3.094L16.711,0.938C16.086,-4.031 14.984,-9.664 13.406,-15.961C12.047,-21.32 10.996,-24.793 10.254,-26.379C9.512,-27.965 8.547,-28.758 7.359,-28.758C5.313,-28.758 3.836,-27.195 2.93,-24.07C2.352,-24.195 2.078,-24.508 2.109,-25.008C2.156,-25.977 2.75,-27.367 3.891,-29.18C5.266,-31.367 7.016,-32.461 9.141,-32.461C10.891,-32.461 12.25,-31.668 13.219,-30.082C14.188,-28.496 15.305,-25.234 16.57,-20.297C17.977,-14.75 19.094,-9.805 19.922,-5.461C26.75,-15.023 30.164,-21.688 30.164,-25.453C30.164,-26.922 29.57,-27.992 28.383,-28.664L31.828,-32.461C33.391,-31.586 34.172,-30.234 34.172,-28.406C34.172,-26.094 32.289,-21.945 28.523,-15.961L25.875,-11.883L23.953,-8.859C23.844,-8.688 23.461,-8.031 22.805,-6.891L21.727,-4.992C21.57,-4.727 21.266,-4.094 20.813,-3.094Z" style="fill-rule:nonzero;"/>
                <path d="M46.992,-6.82C47.414,-6.57 47.625,-6.328 47.625,-6.094C47.625,-5.531 46.945,-4.422 45.586,-2.766C43.758,-0.516 42.063,0.609 40.5,0.609C39.359,0.609 38.789,-0.148 38.789,-1.664C38.789,-2.305 39.023,-4.273 39.492,-7.57L40.406,-13.945L40.641,-15.563L40.828,-16.852C40.906,-17.398 40.945,-17.859 40.945,-18.234C40.945,-19.016 40.727,-19.406 40.289,-19.406C39.07,-19.406 37.758,-18.063 36.352,-15.375C36.055,-15.641 35.906,-15.906 35.906,-16.172C35.906,-17.125 36.785,-18.406 38.543,-20.016C40.301,-21.625 41.703,-22.43 42.75,-22.43C43.922,-22.43 44.508,-21.617 44.508,-19.992C44.508,-19.68 44.445,-19.039 44.32,-18.07L44.109,-16.5C44.094,-16.375 44.008,-15.742 43.852,-14.602L42.891,-7.898L42.656,-6.398C42.453,-4.914 42.352,-3.922 42.352,-3.422C42.352,-2.75 42.547,-2.414 42.938,-2.414C44.25,-2.414 45.602,-3.883 46.992,-6.82ZM42.281,-25.453L44.25,-30.305C46,-31.023 47.438,-32.016 48.563,-33.281C48.719,-33.063 48.797,-32.836 48.797,-32.602C48.797,-30.508 46.625,-28.125 42.281,-25.453Z" style="fill-rule:nonzero;"/>
                <path d="M59.344,-6.891C59.797,-6.672 60.023,-6.391 60.023,-6.047C60.023,-4.922 59.184,-3.531 57.504,-1.875C55.824,-0.219 54.414,0.609 53.273,0.609C51.977,0.609 51.328,-0.328 51.328,-2.203C51.328,-3.344 51.398,-4.508 51.539,-5.695L51.797,-7.781L53.602,-24.094C54.164,-29.063 55.871,-33.211 58.723,-36.539C61.574,-39.867 64.859,-41.531 68.578,-41.531C69.484,-41.531 70.25,-41.453 70.875,-41.297L67.547,-37.898C66.813,-38.148 65.953,-38.273 64.969,-38.273C62.625,-38.273 60.871,-37.449 59.707,-35.801C58.543,-34.152 57.742,-31.359 57.305,-27.422L55.125,-7.781C54.953,-6.266 54.867,-5.18 54.867,-4.523C54.867,-3.117 55.109,-2.414 55.594,-2.414C56.172,-2.414 56.852,-2.879 57.633,-3.809C58.414,-4.738 58.984,-5.766 59.344,-6.891Z" style="fill-rule:nonzero;"/>
                <path d="M72.141,-6.891C72.594,-6.672 72.82,-6.391 72.82,-6.047C72.82,-4.922 71.98,-3.531 70.301,-1.875C68.621,-0.219 67.211,0.609 66.07,0.609C64.773,0.609 64.125,-0.328 64.125,-2.203C64.125,-3.344 64.195,-4.508 64.336,-5.695L64.594,-7.781L66.398,-24.094C66.961,-29.063 68.668,-33.211 71.52,-36.539C74.371,-39.867 77.656,-41.531 81.375,-41.531C82.281,-41.531 83.047,-41.453 83.672,-41.297L80.344,-37.898C79.609,-38.148 78.75,-38.273 77.766,-38.273C75.422,-38.273 73.668,-37.449 72.504,-35.801C71.34,-34.152 70.539,-31.359 70.102,-27.422L67.922,-7.781C67.75,-6.266 67.664,-5.18 67.664,-4.523C67.664,-3.117 67.906,-2.414 68.391,-2.414C68.969,-2.414 69.648,-2.879 70.43,-3.809C71.211,-4.738 71.781,-5.766 72.141,-6.891Z" style="fill-rule:nonzero;"/>
                <path d="M90,-9.305C88.234,-6.398 86.293,-4.02 84.176,-2.168C82.059,-0.316 80.219,0.609 78.656,0.609C76.516,0.609 75.445,-1.117 75.445,-4.57C75.445,-9.32 77.004,-13.434 80.121,-16.91C83.238,-20.387 86.93,-22.125 91.195,-22.125C92.82,-22.125 94.203,-21.922 95.344,-21.516C95.266,-21.234 95.219,-21.063 95.203,-21L94.922,-19.758C94.734,-18.898 94.633,-18.398 94.617,-18.258L93.117,-7.898L92.906,-6.398C92.703,-4.914 92.602,-3.922 92.602,-3.422C92.602,-2.75 92.797,-2.414 93.188,-2.414C94.5,-2.414 95.844,-3.883 97.219,-6.82C97.641,-6.57 97.852,-6.32 97.852,-6.07C97.852,-5.523 97.18,-4.422 95.836,-2.766C94.008,-0.516 92.313,0.609 90.75,0.609C89.609,0.609 89.039,-0.156 89.039,-1.688C89.039,-2.156 89.094,-2.805 89.203,-3.633L89.438,-5.508L89.742,-7.57L90,-9.305ZM91.336,-18.609C89.914,-19.406 88.477,-19.805 87.023,-19.805C84.836,-19.805 83,-18.469 81.516,-15.797C80.031,-13.125 79.289,-9.813 79.289,-5.859C79.289,-3.828 79.891,-2.813 81.094,-2.813C82.484,-2.813 84.164,-3.875 86.133,-6C88.789,-8.859 90.398,-12.219 90.961,-16.078L91.336,-18.609Z" style="fill-rule:nonzero;"/>
                <path d="M115.523,-18.609C114.398,-19.406 112.984,-19.805 111.281,-19.805C109.141,-19.805 107.332,-18.461 105.855,-15.773C104.379,-13.086 103.641,-9.781 103.641,-5.859C103.641,-3.828 104.242,-2.813 105.445,-2.813C106.82,-2.813 108.5,-3.875 110.484,-6C113.234,-8.953 114.813,-12.297 115.219,-16.031L115.523,-18.609ZM119.531,-21.516C119.453,-21.234 119.406,-21.063 119.391,-21L119.133,-19.758C118.93,-18.852 118.82,-18.352 118.805,-18.258L117.867,-9.68C117.711,-8.242 117.547,-5.719 117.375,-2.109C117.156,2.406 116.727,5.75 116.086,7.922C115.445,10.094 114.313,12.031 112.688,13.734C108.969,17.656 105.008,19.617 100.805,19.617C98.773,19.617 97.086,18.93 95.742,17.555C94.398,16.18 93.727,14.461 93.727,12.398C93.727,8.195 96.297,4.047 101.438,-0.047C100.344,-0.906 99.797,-2.422 99.797,-4.594C99.797,-9.313 101.352,-13.414 104.461,-16.898C107.57,-20.383 111.242,-22.125 115.477,-22.125C117.273,-22.125 118.625,-21.922 119.531,-21.516ZM114.469,-9.211C110.25,-2.773 106.43,0.445 103.008,0.445C102.867,0.445 102.617,0.43 102.258,0.398C98.633,4.055 96.82,7.313 96.82,10.172C96.82,12.125 97.512,13.762 98.895,15.082C100.277,16.402 101.992,17.063 104.039,17.063C107.195,17.063 109.617,15.672 111.305,12.891C112.586,10.75 113.477,5.648 113.977,-2.414C114.164,-5.461 114.328,-7.727 114.469,-9.211Z" style="fill-rule:nonzero;"/>
                <path d="M136.688,-7.453C137.078,-7.188 137.273,-6.875 137.273,-6.516C137.273,-6.031 136.773,-5.203 135.773,-4.031C133.102,-0.938 130.461,0.609 127.852,0.609C126.258,0.609 124.945,-0.023 123.914,-1.289C122.883,-2.555 122.367,-4.172 122.367,-6.141C122.367,-9.703 123.715,-13.309 126.41,-16.957C129.105,-20.605 131.773,-22.43 134.414,-22.43C136.32,-22.43 137.273,-21.406 137.273,-19.359C137.273,-17.063 136.16,-14.82 133.934,-12.633C131.707,-10.445 128.992,-8.922 125.789,-8.063C126.102,-4.297 127.586,-2.414 130.242,-2.414C132.867,-2.414 135.016,-4.094 136.688,-7.453ZM125.883,-10.922C126.336,-10.766 126.75,-10.688 127.125,-10.688C129.063,-10.688 130.758,-11.281 132.211,-12.469C133.664,-13.656 134.391,-15.047 134.391,-16.641C134.391,-18.469 133.461,-19.383 131.602,-19.383C130.258,-19.383 129.043,-18.582 127.957,-16.98C126.871,-15.379 126.18,-13.359 125.883,-10.922Z" style="fill-rule:nonzero;"/>
                <path d="M172.57,-2.766C169.305,-0.281 165.852,0.961 162.211,0.961C159.727,0.961 157.715,0.227 156.176,-1.242C154.637,-2.711 153.867,-4.625 153.867,-6.984C153.867,-11.531 157.094,-15.305 163.547,-18.305C162.547,-20.836 162.047,-22.867 162.047,-24.398C162.047,-26.711 162.84,-28.633 164.426,-30.164C166.012,-31.695 168.008,-32.461 170.414,-32.461C173.914,-32.461 175.664,-30.914 175.664,-27.82C175.664,-24.961 172.859,-21.977 167.25,-18.867C167.422,-18.492 167.523,-18.266 167.555,-18.188L168.188,-16.898C168.719,-15.805 169.117,-15.023 169.383,-14.555C171.742,-17.039 175.391,-18.281 180.328,-18.281L183.539,-18.281L185.227,-18.305C187.992,-18.305 189.961,-18.645 191.133,-19.324C192.305,-20.004 192.891,-21.148 192.891,-22.758C192.891,-23.695 192.43,-24.633 191.508,-25.57L194.109,-28.195C194.766,-27.32 195.094,-26.211 195.094,-24.867C195.094,-21.898 193.832,-19.531 191.309,-17.766C188.785,-16 185.414,-15.117 181.195,-15.117L180.773,-15.117C179.977,-11.445 178.102,-8.125 175.148,-5.156C176.727,-2.953 178.188,-1.852 179.531,-1.852C180.609,-1.852 181.734,-2.664 182.906,-4.289C183.156,-4.07 183.281,-3.813 183.281,-3.516C183.281,-2.703 182.613,-1.754 181.277,-0.668C179.941,0.418 178.773,0.961 177.773,0.961C176.305,0.961 174.57,-0.281 172.57,-2.766ZM166.898,-19.711C170.57,-21.867 172.406,-24.328 172.406,-27.094C172.406,-28.172 172.031,-29.102 171.281,-29.883C170.531,-30.664 169.641,-31.055 168.609,-31.055C166.234,-31.055 165.047,-29.57 165.047,-26.602C165.047,-25.008 165.664,-22.711 166.898,-19.711ZM171.938,-3.563L171.375,-4.336C168.844,-7.914 166.563,-11.977 164.531,-16.523L164.133,-17.414C160.055,-15.43 158.016,-12.453 158.016,-8.484C158.016,-6.328 158.727,-4.555 160.148,-3.164C161.57,-1.773 163.375,-1.078 165.563,-1.078C167.688,-1.078 169.813,-1.906 171.938,-3.563ZM174.469,-6C176.563,-9.031 177.734,-12.07 177.984,-15.117L177.305,-15.117C173.945,-15.117 171.453,-14.672 169.828,-13.781C170.109,-13.266 170.273,-12.961 170.32,-12.867L171.914,-10.125C173.086,-8.109 173.938,-6.734 174.469,-6Z" style="fill-rule:nonzero;"/>
            </g>
            <g transform="matrix(1,0,0,1,24.316,359.124)">
                <path d="M27.445,-8.18C27.805,-8.008 27.984,-7.758 27.984,-7.43C27.984,-6.398 27.039,-5.039 25.148,-3.352C21.945,-0.492 18.305,0.938 14.227,0.938C10.93,0.938 8.301,-0.254 6.34,-2.637C4.379,-5.02 3.398,-8.219 3.398,-12.234C3.398,-17.969 5.234,-22.773 8.906,-26.648C12.578,-30.523 17.133,-32.461 22.57,-32.461C25.336,-32.461 28.203,-31.938 31.172,-30.891L29.602,-27.445L29.156,-26.438C28.781,-25.641 28.32,-25.242 27.773,-25.242C27.664,-25.242 27.5,-25.266 27.281,-25.313C27.5,-25.797 27.609,-26.195 27.609,-26.508C27.609,-27.555 26.91,-28.469 25.512,-29.25C24.113,-30.031 22.484,-30.422 20.625,-30.422C16.813,-30.422 13.715,-28.914 11.332,-25.898C8.949,-22.883 7.758,-18.961 7.758,-14.133C7.758,-10.398 8.594,-7.422 10.266,-5.203C11.938,-2.984 14.172,-1.875 16.969,-1.875C18.984,-1.875 20.996,-2.48 23.004,-3.691C25.012,-4.902 26.492,-6.398 27.445,-8.18Z" style="fill-rule:nonzero;"/>
                <path d="M38.484,-12.938C40.313,-15.688 42.324,-17.957 44.52,-19.746C46.715,-21.535 48.594,-22.43 50.156,-22.43C51.672,-22.43 52.43,-21.375 52.43,-19.266C52.43,-18.641 52.336,-17.68 52.148,-16.383L50.906,-7.641C50.656,-5.891 50.531,-4.508 50.531,-3.492C50.531,-2.68 50.75,-2.273 51.188,-2.273C52.266,-2.273 53.586,-3.711 55.148,-6.586C55.539,-6.352 55.734,-6.109 55.734,-5.859C55.734,-4.844 54.863,-3.512 53.121,-1.863C51.379,-0.215 49.961,0.609 48.867,0.609C47.648,0.609 47.039,-0.266 47.039,-2.016C47.039,-3.297 47.203,-5.07 47.531,-7.336L48.328,-13.008C48.594,-14.867 48.727,-16.344 48.727,-17.438C48.727,-18.641 48.297,-19.242 47.438,-19.242C45.438,-19.242 43.414,-17.887 41.367,-15.176C39.32,-12.465 38.117,-9.555 37.758,-6.445L37.148,-0.82L33.656,0.609L33.727,-0.047L33.914,-1.781L34.102,-3.422L36.375,-23.953C36.922,-28.797 38.719,-32.934 41.766,-36.363C44.813,-39.793 48.219,-41.508 51.984,-41.508C52.766,-41.508 53.523,-41.422 54.258,-41.25L50.813,-37.875C49.922,-38.141 49.078,-38.273 48.281,-38.273C43.641,-38.273 40.914,-34.648 40.102,-27.398L38.484,-12.938Z" style="fill-rule:nonzero;"/>
                <path d="M74.883,-9.211C73.102,-6.477 71.094,-4.156 68.859,-2.25C66.625,-0.344 64.805,0.609 63.398,0.609C61.852,0.609 61.078,-0.422 61.078,-2.484C61.078,-3.25 61.18,-4.508 61.383,-6.258L62.227,-13.945C62.242,-14.055 62.281,-14.508 62.344,-15.305L62.484,-16.828C62.531,-17.281 62.555,-17.688 62.555,-18.047C62.555,-18.953 62.297,-19.406 61.781,-19.406C60.594,-19.406 59.313,-18.07 57.938,-15.398C57.641,-15.633 57.492,-15.883 57.492,-16.148C57.492,-17.117 58.355,-18.406 60.082,-20.016C61.809,-21.625 63.18,-22.43 64.195,-22.43C65.492,-22.43 66.141,-21.539 66.141,-19.758C66.141,-19.336 66.109,-18.844 66.047,-18.281L65.836,-16.477L65.625,-14.508L64.875,-7.805C64.75,-6.664 64.688,-5.508 64.688,-4.336C64.688,-3.258 65.086,-2.719 65.883,-2.719C67.648,-2.719 69.645,-4.172 71.871,-7.078C74.098,-9.984 75.414,-12.859 75.82,-15.703L76.617,-21.258L80.414,-22.547C79.977,-20.734 79.648,-19.117 79.43,-17.695L78.023,-7.898C77.945,-7.305 77.883,-6.805 77.836,-6.398L77.672,-5.109C77.578,-4.313 77.531,-3.75 77.531,-3.422C77.531,-2.75 77.719,-2.414 78.094,-2.414C79.422,-2.414 80.773,-3.883 82.148,-6.82C82.57,-6.57 82.781,-6.32 82.781,-6.07C82.781,-5.523 82.102,-4.422 80.742,-2.766C78.914,-0.516 77.219,0.609 75.656,0.609C74.516,0.609 73.945,-0.156 73.945,-1.688C73.945,-2.172 74,-2.82 74.109,-3.633L74.367,-5.508C74.508,-6.523 74.602,-7.211 74.648,-7.57L74.883,-9.211Z" style="fill-rule:nonzero;"/>
                <path d="M92.484,-12.563C95.953,-19.141 99.367,-22.43 102.727,-22.43C103.602,-22.43 104.477,-22.227 105.352,-21.82L102.047,-18.211C101.547,-18.492 100.906,-18.633 100.125,-18.633C98.5,-18.633 96.785,-17.316 94.98,-14.684C93.176,-12.051 92.117,-9.313 91.805,-6.469L91.172,-0.75L87.703,0.422L87.773,-0.281L87.938,-1.805L88.125,-3.328L89.344,-14.484L89.484,-15.703C89.594,-16.625 89.648,-17.375 89.648,-17.953C89.648,-18.906 89.383,-19.383 88.852,-19.383C87.602,-19.383 86.359,-18.047 85.125,-15.375C84.734,-15.672 84.547,-15.977 84.563,-16.289C84.609,-17.242 85.48,-18.504 87.176,-20.074C88.871,-21.645 90.211,-22.43 91.195,-22.43C92.523,-22.43 93.188,-21.555 93.188,-19.805C93.188,-19.383 93.148,-18.813 93.07,-18.094L92.906,-16.453L92.695,-14.484L92.484,-12.563Z" style="fill-rule:nonzero;"/>
                <path d="M121.148,-21.82L118.477,-18.609C117.227,-19.125 116.031,-19.383 114.891,-19.383C112.844,-19.383 111.23,-18.516 110.051,-16.781C108.871,-15.047 108.281,-12.672 108.281,-9.656C108.281,-7.531 108.707,-5.82 109.559,-4.523C110.41,-3.227 111.523,-2.578 112.898,-2.578C115.227,-2.578 117.055,-4.102 118.383,-7.148C118.727,-6.773 118.898,-6.422 118.898,-6.094C118.898,-4.797 117.887,-3.355 115.863,-1.77C113.84,-0.184 111.984,0.609 110.297,0.609C108.672,0.609 107.34,-0.043 106.301,-1.348C105.262,-2.652 104.742,-4.344 104.742,-6.422C104.742,-10.469 106.117,-14.148 108.867,-17.461C111.617,-20.773 114.672,-22.43 118.031,-22.43C119.25,-22.43 120.289,-22.227 121.148,-21.82Z" style="fill-rule:nonzero;"/>
                <path d="M129.305,-12.938C131.133,-15.688 133.145,-17.957 135.34,-19.746C137.535,-21.535 139.414,-22.43 140.977,-22.43C142.492,-22.43 143.25,-21.375 143.25,-19.266C143.25,-18.641 143.156,-17.68 142.969,-16.383L141.727,-7.641C141.477,-5.891 141.352,-4.508 141.352,-3.492C141.352,-2.68 141.57,-2.273 142.008,-2.273C143.086,-2.273 144.406,-3.711 145.969,-6.586C146.359,-6.352 146.555,-6.109 146.555,-5.859C146.555,-4.844 145.684,-3.512 143.941,-1.863C142.199,-0.215 140.781,0.609 139.688,0.609C138.469,0.609 137.859,-0.266 137.859,-2.016C137.859,-3.297 138.023,-5.07 138.352,-7.336L139.148,-13.008C139.414,-14.867 139.547,-16.344 139.547,-17.438C139.547,-18.641 139.117,-19.242 138.258,-19.242C136.258,-19.242 134.234,-17.887 132.188,-15.176C130.141,-12.465 128.938,-9.555 128.578,-6.445L127.969,-0.82L124.477,0.609L124.547,-0.047L124.734,-1.781L124.922,-3.422L127.195,-23.953C127.742,-28.797 129.539,-32.934 132.586,-36.363C135.633,-39.793 139.039,-41.508 142.805,-41.508C143.586,-41.508 144.344,-41.422 145.078,-41.25L141.633,-37.875C140.742,-38.141 139.898,-38.273 139.102,-38.273C134.461,-38.273 131.734,-34.648 130.922,-27.398L129.305,-12.938Z" style="fill-rule:nonzero;"/>
            </g>
        </g>
    </g>
</svg>
