<?xml version="1.0" encoding="UTF-8" standalone="no"?>
<!DOCTYPE svg PUBLIC "-//W3C//DTD SVG 1.1//EN" "http://www.w3.org/Graphics/SVG/1.1/DTD/svg11.dtd">
<svg width="100%" height="100%" viewBox="0 0 130 200" version="1.1" xmlns="http://www.w3.org/2000/svg" xmlns:xlink="http://www.w3.org/1999/xlink" xml:space="preserve" xmlns:serif="http://www.serif.com/" style="fill-rule:evenodd;clip-rule:evenodd;stroke-linejoin:round;stroke-miterlimit:2;">
    <g transform="matrix(0.5,0,0,0.5,0,0)">
        <g id="Layer1">
            <g transform="matrix(1.01003,0,0,1,-0.00293438,0)">
                <path d="M257.486,28.348C257.486,12.875 245.048,0.313 229.729,0.313L28.05,0.313C12.73,0.313 0.293,12.875 0.293,28.348L0.293,371.585C0.293,387.058 12.73,399.62 28.05,399.62L229.729,399.62C245.048,399.62 257.486,387.058 257.486,371.585L257.486,28.348Z" style="fill:rgb(127,127,127);"/>
            </g>
            <g transform="matrix(1.63708,0,0,2.12412,97.9061,-127.572)">
                <path d="M-36.635,141.18L-36.424,141.391C-32.51,145.031 -29.198,146.852 -26.487,146.852C-25.877,146.852 -25.371,146.672 -24.969,146.313C-24.567,145.953 -24.366,145.5 -24.366,144.953C-24.366,144.703 -24.432,144.441 -24.565,144.168L-22.514,143.043C-22.459,143.262 -22.432,143.441 -22.432,143.582C-22.432,144.645 -22.934,145.588 -23.938,146.412C-24.942,147.236 -26.092,147.649 -27.389,147.649C-28.912,147.649 -30.725,147.135 -32.827,146.107C-34.928,145.08 -36.905,143.742 -38.756,142.094C-39.616,142.336 -40.44,142.457 -41.229,142.457C-42.721,142.457 -43.952,141.85 -44.92,140.635C-45.889,139.42 -46.373,137.871 -46.373,135.988C-46.373,133.231 -45.442,130.834 -43.578,128.799C-41.715,126.764 -39.518,125.746 -36.987,125.746C-35.409,125.746 -34.135,126.34 -33.166,127.527C-32.198,128.715 -31.713,130.274 -31.713,132.203C-31.713,136.047 -33.354,139.039 -36.635,141.18ZM-37.116,140.688C-34.991,139.219 -33.928,136.774 -33.928,133.352C-33.928,131.445 -34.356,129.857 -35.211,128.588C-36.067,127.318 -37.135,126.684 -38.416,126.684C-40.049,126.684 -41.412,127.459 -42.506,129.01C-43.6,130.561 -44.147,132.496 -44.147,134.816C-44.147,136.848 -43.735,138.445 -42.911,139.609C-42.086,140.774 -40.92,141.406 -39.412,141.508L-37.807,139.856C-37.705,139.973 -37.639,140.047 -37.608,140.078L-37.28,140.5C-37.256,140.524 -37.202,140.586 -37.116,140.688Z" style="fill-rule:nonzero;"/>
                <path d="M-21.717,137.371C-22.608,138.738 -23.612,139.899 -24.729,140.852C-25.846,141.805 -26.756,142.281 -27.459,142.281C-28.233,142.281 -28.62,141.766 -28.62,140.734C-28.62,140.352 -28.569,139.723 -28.467,138.848L-28.045,135.004C-28.037,134.949 -28.018,134.723 -27.987,134.324L-27.916,133.563C-27.893,133.336 -27.881,133.133 -27.881,132.953C-27.881,132.5 -28.01,132.274 -28.268,132.274C-28.862,132.274 -29.502,132.941 -30.19,134.277C-30.338,134.16 -30.412,134.035 -30.412,133.902C-30.412,133.418 -29.981,132.774 -29.118,131.969C-28.254,131.164 -27.569,130.762 -27.061,130.762C-26.412,130.762 -26.088,131.207 -26.088,132.098C-26.088,132.309 -26.104,132.555 -26.135,132.836L-26.241,133.738L-26.346,134.723L-26.721,138.074C-26.784,138.645 -26.815,139.223 -26.815,139.809C-26.815,140.348 -26.616,140.617 -26.217,140.617C-25.334,140.617 -24.336,139.891 -23.223,138.438C-22.11,136.984 -21.452,135.547 -21.248,134.125L-20.85,131.348L-18.952,130.703C-19.17,131.609 -19.334,132.418 -19.444,133.129L-20.147,138.027C-20.186,138.324 -20.217,138.574 -20.241,138.777L-20.323,139.422C-20.37,139.82 -20.393,140.102 -20.393,140.266C-20.393,140.602 -20.299,140.77 -20.112,140.77C-19.448,140.77 -18.772,140.035 -18.084,138.566C-17.873,138.691 -17.768,138.816 -17.768,138.941C-17.768,139.215 -18.108,139.766 -18.787,140.594C-19.702,141.719 -20.549,142.281 -21.33,142.281C-21.901,142.281 -22.186,141.899 -22.186,141.133C-22.186,140.891 -22.159,140.566 -22.104,140.16L-21.975,139.223C-21.905,138.715 -21.858,138.371 -21.834,138.191L-21.717,137.371Z" style="fill-rule:nonzero;"/>
                <path d="M-9.459,137.324C-10.342,138.777 -11.313,139.967 -12.371,140.893C-13.43,141.818 -14.35,142.281 -15.131,142.281C-16.202,142.281 -16.737,141.418 -16.737,139.691C-16.737,137.316 -15.957,135.26 -14.399,133.522C-12.84,131.783 -10.995,130.914 -8.862,130.914C-8.049,130.914 -7.358,131.016 -6.787,131.219C-6.827,131.359 -6.85,131.445 -6.858,131.477L-6.998,132.098C-7.092,132.527 -7.143,132.777 -7.151,132.848L-7.901,138.027L-8.006,138.777C-8.108,139.52 -8.159,140.016 -8.159,140.266C-8.159,140.602 -8.061,140.77 -7.866,140.77C-7.209,140.77 -6.537,140.035 -5.85,138.566C-5.639,138.691 -5.534,138.816 -5.534,138.941C-5.534,139.215 -5.87,139.766 -6.541,140.594C-7.455,141.719 -8.303,142.281 -9.084,142.281C-9.655,142.281 -9.94,141.899 -9.94,141.133C-9.94,140.899 -9.912,140.574 -9.858,140.16L-9.741,139.223L-9.588,138.191L-9.459,137.324ZM-8.791,132.672C-9.502,132.274 -10.221,132.074 -10.948,132.074C-12.041,132.074 -12.959,132.742 -13.702,134.078C-14.444,135.414 -14.815,137.07 -14.815,139.047C-14.815,140.063 -14.514,140.57 -13.912,140.57C-13.217,140.57 -12.377,140.039 -11.393,138.977C-10.065,137.547 -9.26,135.867 -8.979,133.938L-8.791,132.672Z" style="fill-rule:nonzero;"/>
                <path d="M-0.6,135.695C1.134,132.406 2.841,130.762 4.521,130.762C4.959,130.762 5.396,130.863 5.834,131.066L4.181,132.871C3.931,132.731 3.611,132.66 3.22,132.66C2.408,132.66 1.55,133.318 0.648,134.635C-0.254,135.951 -0.784,137.32 -0.94,138.742L-1.256,141.602L-2.991,142.188L-2.955,141.836L-2.873,141.074L-2.78,140.313L-2.17,134.734L-2.1,134.125C-2.045,133.664 -2.018,133.289 -2.018,133C-2.018,132.524 -2.151,132.285 -2.416,132.285C-3.041,132.285 -3.662,132.953 -4.28,134.289C-4.475,134.141 -4.569,133.988 -4.561,133.832C-4.537,133.356 -4.102,132.725 -3.254,131.94C-2.407,131.154 -1.737,130.762 -1.245,130.762C-0.58,130.762 -0.248,131.199 -0.248,132.074C-0.248,132.285 -0.268,132.57 -0.307,132.93L-0.389,133.75L-0.495,134.734L-0.6,135.695Z" style="fill-rule:nonzero;"/>
                <path d="M9.396,135.695C11.13,132.406 12.838,130.762 14.517,130.762C14.955,130.762 15.392,130.863 15.83,131.066L14.177,132.871C13.927,132.731 13.607,132.66 13.216,132.66C12.404,132.66 11.547,133.318 10.644,134.635C9.742,135.951 9.213,137.32 9.056,138.742L8.74,141.602L7.005,142.188L7.041,141.836L7.123,141.074L7.216,140.313L7.826,134.734L7.896,134.125C7.951,133.664 7.978,133.289 7.978,133C7.978,132.524 7.845,132.285 7.58,132.285C6.955,132.285 6.334,132.953 5.716,134.289C5.521,134.141 5.427,133.988 5.435,133.832C5.459,133.356 5.894,132.725 6.742,131.94C7.589,131.154 8.259,130.762 8.752,130.762C9.416,130.762 9.748,131.199 9.748,132.074C9.748,132.285 9.728,132.57 9.689,132.93L9.607,133.75L9.502,134.734L9.396,135.695Z" style="fill-rule:nonzero;"/>
                <path d="M24.15,137.313C23.361,138.75 22.535,139.938 21.672,140.875C20.808,141.813 20.103,142.281 19.556,142.281C18.806,142.281 18.392,141.492 18.314,139.914L18.232,138.285L18.08,134.969L18.045,134.02C17.974,132.762 17.744,132.133 17.353,132.133C16.744,132.133 16.15,132.711 15.572,133.867C15.369,133.727 15.267,133.574 15.267,133.41C15.267,132.988 15.646,132.441 16.404,131.77C17.162,131.098 17.779,130.762 18.255,130.762C18.748,130.762 19.095,130.982 19.298,131.424C19.502,131.865 19.634,132.68 19.697,133.867L19.908,137.969C19.986,139.531 20.236,140.313 20.658,140.313C21.291,140.313 22.076,139.588 23.013,138.139C23.951,136.69 24.552,135.266 24.818,133.867L25.275,131.477L27.361,130.75C27.095,131.438 26.822,132.477 26.541,133.867L24.97,141.731C24.353,144.809 23.4,147.082 22.111,148.551C20.181,150.738 17.947,151.832 15.408,151.832C14.877,151.832 14.279,151.715 13.615,151.481L15.056,149.899C15.791,150.227 16.556,150.391 17.353,150.391C18.978,150.391 20.197,149.863 21.009,148.809C21.822,147.754 22.502,145.82 23.048,143.008L24.15,137.313Z" style="fill-rule:nonzero;"/>
                <path d="M36.314,141.695L37.802,140.113L38.166,140.195C38.634,140.313 39.08,140.399 39.502,140.453C40.134,140.063 40.562,139.592 40.785,139.041C41.007,138.49 41.209,137.418 41.388,135.824L42.373,127C40.748,127.117 39.451,127.555 38.482,128.313C37.513,129.07 37.029,130.024 37.029,131.172C37.029,131.859 37.201,132.508 37.545,133.117L35.658,134.781C35.494,134.18 35.412,133.57 35.412,132.953C35.412,130.844 36.312,129.115 38.113,127.768C39.914,126.42 42.216,125.746 45.021,125.746C48.638,125.746 50.447,126.785 50.447,128.863C50.447,130.637 49.279,132.055 46.943,133.117C49.224,134.008 50.365,135.375 50.365,137.219C50.365,138.719 49.603,139.914 48.08,140.805C46.556,141.695 44.517,142.141 41.963,142.141C40.392,142.141 38.509,141.992 36.314,141.695ZM44.271,126.906L43.58,133.117C44.041,133.156 44.439,133.176 44.775,133.176C45.15,133.176 45.599,133.149 46.123,133.094C47.787,132.133 48.619,130.977 48.619,129.625C48.619,127.813 47.17,126.906 44.271,126.906ZM43.474,134.055L43.298,135.625L43.193,136.609C43.06,137.774 42.828,138.592 42.496,139.065C42.164,139.537 41.459,140.047 40.38,140.594C41.927,140.844 43.455,140.969 44.963,140.969C47.4,140.969 48.619,140 48.619,138.063C48.619,137.227 48.285,136.42 47.617,135.643C46.949,134.865 46.134,134.336 45.173,134.055L44.869,134.066L44.306,134.09L43.791,134.066L43.474,134.055Z" style="fill-rule:nonzero;"/>
                <path d="M59.834,137.324C58.951,138.777 57.98,139.967 56.922,140.893C55.863,141.818 54.943,142.281 54.162,142.281C53.091,142.281 52.556,141.418 52.556,139.691C52.556,137.316 53.336,135.26 54.894,133.522C56.453,131.783 58.298,130.914 60.431,130.914C61.244,130.914 61.935,131.016 62.505,131.219C62.466,131.359 62.443,131.445 62.435,131.477L62.295,132.098C62.201,132.527 62.15,132.777 62.142,132.848L61.392,138.027L61.287,138.777C61.185,139.52 61.134,140.016 61.134,140.266C61.134,140.602 61.232,140.77 61.427,140.77C62.084,140.77 62.755,140.035 63.443,138.566C63.654,138.691 63.759,138.816 63.759,138.941C63.759,139.215 63.423,139.766 62.752,140.594C61.838,141.719 60.99,142.281 60.209,142.281C59.638,142.281 59.353,141.899 59.353,141.133C59.353,140.899 59.38,140.574 59.435,140.16L59.552,139.223L59.705,138.191L59.834,137.324ZM60.502,132.672C59.791,132.274 59.072,132.074 58.345,132.074C57.252,132.074 56.334,132.742 55.591,134.078C54.849,135.414 54.478,137.07 54.478,139.047C54.478,140.063 54.779,140.57 55.38,140.57C56.076,140.57 56.916,140.039 57.9,138.977C59.228,137.547 60.033,135.867 60.314,133.938L60.502,132.672Z" style="fill-rule:nonzero;"/>
                <path d="M68.025,141.566L66.279,142.281L66.314,141.953L66.408,141.086L66.502,140.266L67.111,134.828L67.181,134.207C67.228,133.723 67.252,133.332 67.252,133.035C67.252,132.535 67.127,132.285 66.877,132.285C66.291,132.285 65.662,132.949 64.99,134.277C64.81,134.129 64.72,134 64.72,133.891C64.72,133.422 65.148,132.783 66.004,131.975C66.859,131.166 67.533,130.762 68.025,130.762C68.697,130.762 69.033,131.191 69.033,132.051C69.033,132.27 69.013,132.563 68.974,132.93L68.88,133.879L68.787,134.676L68.693,135.508C69.615,134.133 70.625,132.998 71.722,132.104C72.82,131.209 73.755,130.762 74.529,130.762C75.287,130.762 75.666,131.289 75.666,132.344C75.666,132.664 75.623,133.145 75.537,133.785L74.904,138.156C74.779,139.031 74.716,139.723 74.716,140.231C74.716,140.637 74.826,140.84 75.045,140.84C75.584,140.84 76.248,140.121 77.037,138.684C77.224,138.801 77.318,138.922 77.318,139.047C77.318,139.555 76.882,140.221 76.011,141.045C75.14,141.869 74.431,142.281 73.884,142.281C73.275,142.281 72.97,141.844 72.97,140.969C72.97,140.328 73.052,139.441 73.216,138.309L73.627,135.473C73.759,134.551 73.826,133.82 73.826,133.281C73.826,132.664 73.611,132.356 73.181,132.356C72.181,132.356 71.168,133.033 70.14,134.389C69.113,135.744 68.513,137.199 68.341,138.754L68.025,141.566Z" style="fill-rule:nonzero;"/>
                <path d="M81.572,134.606C82.158,133.512 82.894,132.598 83.781,131.863C84.668,131.129 85.482,130.762 86.224,130.762C87.224,130.762 87.724,131.277 87.724,132.309C87.724,133.293 87.308,134.193 86.476,135.01C85.644,135.826 84.545,136.414 83.177,136.774C84.662,139.438 85.767,140.77 86.494,140.77C87.017,140.77 87.568,140.313 88.146,139.399C88.326,139.531 88.416,139.66 88.416,139.785C88.416,140.152 88.056,140.656 87.338,141.297C86.619,141.938 86.041,142.266 85.603,142.281C84.822,142.32 83.494,140.66 81.619,137.301L81.326,136.774L80.798,141.566L79.052,142.281L79.088,141.953L79.181,141.086L79.275,140.266L80.423,130C80.689,127.57 81.584,125.5 83.107,123.789C84.63,122.078 86.338,121.223 88.228,121.223C88.619,121.223 88.994,121.266 89.353,121.352L87.63,123.039C87.185,122.906 86.763,122.84 86.365,122.84C84.045,122.84 82.681,124.652 82.275,128.277L81.572,134.606ZM81.361,136.422C82.619,136.422 83.67,136.139 84.513,135.572C85.357,135.006 85.779,134.305 85.779,133.469C85.779,132.625 85.482,132.203 84.888,132.203C84.341,132.203 83.734,132.604 83.066,133.404C82.398,134.205 81.83,135.211 81.361,136.422Z" style="fill-rule:nonzero;"/>
                <path d="M-0.213,150.215C-0.565,152.004 -0.776,153.207 -0.846,153.824L-1.209,157.07L5.33,157.07L5.377,156.649C5.884,152.109 6.783,149.024 8.072,147.391C9.65,145.391 11.4,144.391 13.322,144.391C14.041,144.391 14.709,144.516 15.326,144.766L13.591,146.465C12.935,146.02 12.283,145.797 11.634,145.797C10.314,145.797 9.396,146.451 8.88,147.76C8.365,149.068 7.853,152.031 7.345,156.649L7.17,158.242C6.951,160.297 6.841,161.887 6.841,163.012C6.841,163.676 7.127,164.008 7.697,164.008C8.119,164.008 8.642,163.828 9.267,163.469C9.298,163.609 9.314,163.707 9.314,163.762C9.314,163.996 9.107,164.207 8.693,164.395L8.013,164.711L4.568,166.281C4.568,164.836 4.755,162.379 5.13,158.91L5.177,158.488L-1.362,158.488L-1.479,159.555L-1.631,160.856C-1.764,161.965 -2.004,162.766 -2.352,163.258C-2.7,163.75 -3.366,164.231 -4.35,164.699L-1.584,164.875L-2.991,166.234L-8.065,165.977L-6.565,164.524L-5.287,164.664C-4.67,164.266 -4.245,163.768 -4.01,163.17C-3.776,162.572 -3.573,161.461 -3.401,159.836L-2.498,151.633L-2.862,151.633C-6.112,151.633 -7.737,152.707 -7.737,154.856C-7.737,155.527 -7.553,156.203 -7.186,156.883L-9.096,158.711C-9.276,158.102 -9.366,157.496 -9.366,156.895C-9.366,154.879 -8.616,153.262 -7.116,152.043C-5.616,150.824 -3.623,150.215 -1.139,150.215L-0.213,150.215Z" style="fill-rule:nonzero;"/>
                <path d="M13.509,166.281C11.752,166.281 10.873,165.117 10.873,162.789C10.873,160.914 11.56,159.107 12.935,157.369C14.31,155.631 15.736,154.762 17.213,154.762C18.994,154.762 19.884,155.926 19.884,158.254C19.884,160.137 19.197,161.945 17.822,163.68C16.447,165.414 15.009,166.281 13.509,166.281ZM14.927,164.969C15.826,164.969 16.578,164.469 17.183,163.469C17.789,162.469 18.091,161.223 18.091,159.731C18.091,157.293 17.334,156.074 15.818,156.074C14.927,156.074 14.179,156.576 13.574,157.58C12.968,158.584 12.666,159.828 12.666,161.313C12.666,163.75 13.42,164.969 14.927,164.969Z" style="fill-rule:nonzero;"/>
                <path d="M29.681,161.371C28.791,162.738 27.787,163.899 26.67,164.852C25.552,165.805 24.642,166.281 23.939,166.281C23.166,166.281 22.779,165.766 22.779,164.734C22.779,164.352 22.83,163.723 22.931,162.848L23.353,159.004C23.361,158.949 23.38,158.723 23.412,158.324L23.482,157.563C23.505,157.336 23.517,157.133 23.517,156.953C23.517,156.5 23.388,156.274 23.13,156.274C22.537,156.274 21.896,156.941 21.209,158.277C21.06,158.16 20.986,158.035 20.986,157.902C20.986,157.418 21.418,156.774 22.281,155.969C23.144,155.164 23.83,154.762 24.338,154.762C24.986,154.762 25.31,155.207 25.31,156.098C25.31,156.309 25.295,156.555 25.263,156.836L25.158,157.738L25.052,158.723L24.677,162.074C24.615,162.645 24.584,163.223 24.584,163.809C24.584,164.348 24.783,164.617 25.181,164.617C26.064,164.617 27.062,163.891 28.175,162.438C29.289,160.984 29.947,159.547 30.15,158.125L30.548,155.348L32.447,154.703C32.228,155.609 32.064,156.418 31.955,157.129L31.252,162.027C31.213,162.324 31.181,162.574 31.158,162.777L31.076,163.422C31.029,163.82 31.005,164.102 31.005,164.266C31.005,164.602 31.099,164.77 31.287,164.77C31.951,164.77 32.627,164.035 33.314,162.566C33.525,162.691 33.63,162.816 33.63,162.941C33.63,163.215 33.291,163.766 32.611,164.594C31.697,165.719 30.849,166.281 30.068,166.281C29.498,166.281 29.213,165.899 29.213,165.133C29.213,164.891 29.24,164.566 29.295,164.16L29.423,163.223C29.494,162.715 29.541,162.371 29.564,162.191L29.681,161.371Z" style="fill-rule:nonzero;"/>
                <path d="M33.912,165.649L35.529,164.324C36.138,164.973 36.904,165.297 37.826,165.297C38.951,165.297 39.513,164.754 39.513,163.668C39.513,163.066 38.998,162.227 37.966,161.149L37.298,160.457C36.322,159.434 35.834,158.606 35.834,157.973C35.834,157.066 36.226,156.305 37.011,155.688C37.797,155.07 38.763,154.762 39.912,154.762C40.537,154.762 41.22,154.879 41.963,155.113L40.556,156.414C39.963,155.969 39.302,155.746 38.576,155.746C37.724,155.746 37.298,156.102 37.298,156.813C37.298,157.32 37.771,158.066 38.716,159.051L39.443,159.824C40.521,160.949 41.06,161.856 41.06,162.543C41.06,163.527 40.588,164.397 39.642,165.15C38.697,165.904 37.607,166.281 36.373,166.281C35.498,166.281 34.677,166.07 33.912,165.649Z" style="fill-rule:nonzero;"/>
                <path d="M50.306,162.25C50.502,162.383 50.599,162.539 50.599,162.719C50.599,162.961 50.349,163.375 49.849,163.961C48.513,165.508 47.193,166.281 45.888,166.281C45.091,166.281 44.435,165.965 43.92,165.332C43.404,164.699 43.146,163.891 43.146,162.906C43.146,161.125 43.82,159.322 45.168,157.498C46.515,155.674 47.849,154.762 49.17,154.762C50.123,154.762 50.599,155.274 50.599,156.297C50.599,157.445 50.043,158.566 48.929,159.66C47.816,160.754 46.459,161.516 44.857,161.945C45.013,163.828 45.755,164.77 47.084,164.77C48.396,164.77 49.47,163.93 50.306,162.25ZM44.904,160.516C45.13,160.594 45.338,160.633 45.525,160.633C46.494,160.633 47.341,160.336 48.068,159.742C48.795,159.149 49.158,158.453 49.158,157.656C49.158,156.742 48.693,156.285 47.763,156.285C47.091,156.285 46.484,156.686 45.941,157.486C45.398,158.287 45.052,159.297 44.904,160.516Z" style="fill-rule:nonzero;"/>
            </g>
        </g>
    </g>
</svg>
