<?xml version="1.0" encoding="UTF-8" standalone="no"?>
<!DOCTYPE svg PUBLIC "-//W3C//DTD SVG 1.1//EN" "http://www.w3.org/Graphics/SVG/1.1/DTD/svg11.dtd">
<svg width="100%" height="100%" viewBox="0 0 130 200" version="1.1" xmlns="http://www.w3.org/2000/svg" xmlns:xlink="http://www.w3.org/1999/xlink" xml:space="preserve" xmlns:serif="http://www.serif.com/" style="fill-rule:evenodd;clip-rule:evenodd;stroke-linejoin:round;stroke-miterlimit:2;">
    <g transform="matrix(0.5,0,0,0.5,0,0)">
        <path d="M259.87,31.563C259.87,14.121 245.709,-0.041 228.266,-0.041L32.08,-0.041C14.637,-0.041 0.476,14.121 0.476,31.563L0.476,368.688C0.476,386.13 14.637,400.292 32.08,400.292L228.266,400.292C245.709,400.292 259.87,386.13 259.87,368.688L259.87,31.563Z" style="fill:rgb(128,128,128);"/>
        <g transform="matrix(1,0,0,1,30.3986,11.6595)">
            <g transform="matrix(1,0,0,1,-1.13212,169.854)">
                <path d="M20.813,-3.094L16.711,0.938C16.086,-4.031 14.984,-9.664 13.406,-15.961C12.047,-21.32 10.996,-24.793 10.254,-26.379C9.512,-27.965 8.547,-28.758 7.359,-28.758C5.313,-28.758 3.836,-27.195 2.93,-24.07C2.352,-24.195 2.078,-24.508 2.109,-25.008C2.156,-25.977 2.75,-27.367 3.891,-29.18C5.266,-31.367 7.016,-32.461 9.141,-32.461C10.891,-32.461 12.25,-31.668 13.219,-30.082C14.188,-28.496 15.305,-25.234 16.57,-20.297C17.977,-14.75 19.094,-9.805 19.922,-5.461C26.75,-15.023 30.164,-21.688 30.164,-25.453C30.164,-26.922 29.57,-27.992 28.383,-28.664L31.828,-32.461C33.391,-31.586 34.172,-30.234 34.172,-28.406C34.172,-26.094 32.289,-21.945 28.523,-15.961L25.875,-11.883L23.953,-8.859C23.844,-8.688 23.461,-8.031 22.805,-6.891L21.727,-4.992C21.57,-4.727 21.266,-4.094 20.813,-3.094Z" style="fill-rule:nonzero;"/>
                <path d="M46.992,-6.82C47.414,-6.57 47.625,-6.328 47.625,-6.094C47.625,-5.531 46.945,-4.422 45.586,-2.766C43.758,-0.516 42.063,0.609 40.5,0.609C39.359,0.609 38.789,-0.148 38.789,-1.664C38.789,-2.305 39.023,-4.273 39.492,-7.57L40.406,-13.945L40.641,-15.563L40.828,-16.852C40.906,-17.398 40.945,-17.859 40.945,-18.234C40.945,-19.016 40.727,-19.406 40.289,-19.406C39.07,-19.406 37.758,-18.063 36.352,-15.375C36.055,-15.641 35.906,-15.906 35.906,-16.172C35.906,-17.125 36.785,-18.406 38.543,-20.016C40.301,-21.625 41.703,-22.43 42.75,-22.43C43.922,-22.43 44.508,-21.617 44.508,-19.992C44.508,-19.68 44.445,-19.039 44.32,-18.07L44.109,-16.5C44.094,-16.375 44.008,-15.742 43.852,-14.602L42.891,-7.898L42.656,-6.398C42.453,-4.914 42.352,-3.922 42.352,-3.422C42.352,-2.75 42.547,-2.414 42.938,-2.414C44.25,-2.414 45.602,-3.883 46.992,-6.82ZM42.281,-25.453L44.25,-30.305C46,-31.023 47.438,-32.016 48.563,-33.281C48.719,-33.063 48.797,-32.836 48.797,-32.602C48.797,-30.508 46.625,-28.125 42.281,-25.453Z" style="fill-rule:nonzero;"/>
                <path d="M59.344,-6.891C59.797,-6.672 60.023,-6.391 60.023,-6.047C60.023,-4.922 59.184,-3.531 57.504,-1.875C55.824,-0.219 54.414,0.609 53.273,0.609C51.977,0.609 51.328,-0.328 51.328,-2.203C51.328,-3.344 51.398,-4.508 51.539,-5.695L51.797,-7.781L53.602,-24.094C54.164,-29.063 55.871,-33.211 58.723,-36.539C61.574,-39.867 64.859,-41.531 68.578,-41.531C69.484,-41.531 70.25,-41.453 70.875,-41.297L67.547,-37.898C66.813,-38.148 65.953,-38.273 64.969,-38.273C62.625,-38.273 60.871,-37.449 59.707,-35.801C58.543,-34.152 57.742,-31.359 57.305,-27.422L55.125,-7.781C54.953,-6.266 54.867,-5.18 54.867,-4.523C54.867,-3.117 55.109,-2.414 55.594,-2.414C56.172,-2.414 56.852,-2.879 57.633,-3.809C58.414,-4.738 58.984,-5.766 59.344,-6.891Z" style="fill-rule:nonzero;"/>
                <path d="M72.141,-6.891C72.594,-6.672 72.82,-6.391 72.82,-6.047C72.82,-4.922 71.98,-3.531 70.301,-1.875C68.621,-0.219 67.211,0.609 66.07,0.609C64.773,0.609 64.125,-0.328 64.125,-2.203C64.125,-3.344 64.195,-4.508 64.336,-5.695L64.594,-7.781L66.398,-24.094C66.961,-29.063 68.668,-33.211 71.52,-36.539C74.371,-39.867 77.656,-41.531 81.375,-41.531C82.281,-41.531 83.047,-41.453 83.672,-41.297L80.344,-37.898C79.609,-38.148 78.75,-38.273 77.766,-38.273C75.422,-38.273 73.668,-37.449 72.504,-35.801C71.34,-34.152 70.539,-31.359 70.102,-27.422L67.922,-7.781C67.75,-6.266 67.664,-5.18 67.664,-4.523C67.664,-3.117 67.906,-2.414 68.391,-2.414C68.969,-2.414 69.648,-2.879 70.43,-3.809C71.211,-4.738 71.781,-5.766 72.141,-6.891Z" style="fill-rule:nonzero;"/>
                <path d="M90,-9.305C88.234,-6.398 86.293,-4.02 84.176,-2.168C82.059,-0.316 80.219,0.609 78.656,0.609C76.516,0.609 75.445,-1.117 75.445,-4.57C75.445,-9.32 77.004,-13.434 80.121,-16.91C83.238,-20.387 86.93,-22.125 91.195,-22.125C92.82,-22.125 94.203,-21.922 95.344,-21.516C95.266,-21.234 95.219,-21.063 95.203,-21L94.922,-19.758C94.734,-18.898 94.633,-18.398 94.617,-18.258L93.117,-7.898L92.906,-6.398C92.703,-4.914 92.602,-3.922 92.602,-3.422C92.602,-2.75 92.797,-2.414 93.188,-2.414C94.5,-2.414 95.844,-3.883 97.219,-6.82C97.641,-6.57 97.852,-6.32 97.852,-6.07C97.852,-5.523 97.18,-4.422 95.836,-2.766C94.008,-0.516 92.313,0.609 90.75,0.609C89.609,0.609 89.039,-0.156 89.039,-1.688C89.039,-2.156 89.094,-2.805 89.203,-3.633L89.438,-5.508L89.742,-7.57L90,-9.305ZM91.336,-18.609C89.914,-19.406 88.477,-19.805 87.023,-19.805C84.836,-19.805 83,-18.469 81.516,-15.797C80.031,-13.125 79.289,-9.813 79.289,-5.859C79.289,-3.828 79.891,-2.813 81.094,-2.813C82.484,-2.813 84.164,-3.875 86.133,-6C88.789,-8.859 90.398,-12.219 90.961,-16.078L91.336,-18.609Z" style="fill-rule:nonzero;"/>
                <path d="M115.523,-18.609C114.398,-19.406 112.984,-19.805 111.281,-19.805C109.141,-19.805 107.332,-18.461 105.855,-15.773C104.379,-13.086 103.641,-9.781 103.641,-5.859C103.641,-3.828 104.242,-2.813 105.445,-2.813C106.82,-2.813 108.5,-3.875 110.484,-6C113.234,-8.953 114.813,-12.297 115.219,-16.031L115.523,-18.609ZM119.531,-21.516C119.453,-21.234 119.406,-21.063 119.391,-21L119.133,-19.758C118.93,-18.852 118.82,-18.352 118.805,-18.258L117.867,-9.68C117.711,-8.242 117.547,-5.719 117.375,-2.109C117.156,2.406 116.727,5.75 116.086,7.922C115.445,10.094 114.313,12.031 112.688,13.734C108.969,17.656 105.008,19.617 100.805,19.617C98.773,19.617 97.086,18.93 95.742,17.555C94.398,16.18 93.727,14.461 93.727,12.398C93.727,8.195 96.297,4.047 101.438,-0.047C100.344,-0.906 99.797,-2.422 99.797,-4.594C99.797,-9.313 101.352,-13.414 104.461,-16.898C107.57,-20.383 111.242,-22.125 115.477,-22.125C117.273,-22.125 118.625,-21.922 119.531,-21.516ZM114.469,-9.211C110.25,-2.773 106.43,0.445 103.008,0.445C102.867,0.445 102.617,0.43 102.258,0.398C98.633,4.055 96.82,7.313 96.82,10.172C96.82,12.125 97.512,13.762 98.895,15.082C100.277,16.402 101.992,17.063 104.039,17.063C107.195,17.063 109.617,15.672 111.305,12.891C112.586,10.75 113.477,5.648 113.977,-2.414C114.164,-5.461 114.328,-7.727 114.469,-9.211Z" style="fill-rule:nonzero;"/>
                <path d="M136.688,-7.453C137.078,-7.188 137.273,-6.875 137.273,-6.516C137.273,-6.031 136.773,-5.203 135.773,-4.031C133.102,-0.938 130.461,0.609 127.852,0.609C126.258,0.609 124.945,-0.023 123.914,-1.289C122.883,-2.555 122.367,-4.172 122.367,-6.141C122.367,-9.703 123.715,-13.309 126.41,-16.957C129.105,-20.605 131.773,-22.43 134.414,-22.43C136.32,-22.43 137.273,-21.406 137.273,-19.359C137.273,-17.063 136.16,-14.82 133.934,-12.633C131.707,-10.445 128.992,-8.922 125.789,-8.063C126.102,-4.297 127.586,-2.414 130.242,-2.414C132.867,-2.414 135.016,-4.094 136.688,-7.453ZM125.883,-10.922C126.336,-10.766 126.75,-10.688 127.125,-10.688C129.063,-10.688 130.758,-11.281 132.211,-12.469C133.664,-13.656 134.391,-15.047 134.391,-16.641C134.391,-18.469 133.461,-19.383 131.602,-19.383C130.258,-19.383 129.043,-18.582 127.957,-16.98C126.871,-15.379 126.18,-13.359 125.883,-10.922Z" style="fill-rule:nonzero;"/>
                <g transform="matrix(1,0,0,1,46.2799,-0.569153)">
                    <path d="M88.125,45.234C84.859,47.719 81.406,48.961 77.766,48.961C75.281,48.961 73.27,48.227 71.73,46.758C70.191,45.289 69.422,43.375 69.422,41.016C69.422,36.469 72.648,32.695 79.102,29.695C78.102,27.164 77.602,25.133 77.602,23.602C77.602,21.289 78.395,19.367 79.98,17.836C81.566,16.305 83.563,15.539 85.969,15.539C89.469,15.539 91.219,17.086 91.219,20.18C91.219,23.039 88.414,26.023 82.805,29.133C82.977,29.508 83.078,29.734 83.109,29.813L83.742,31.102C84.273,32.195 84.672,32.977 84.938,33.445C87.297,30.961 90.945,29.719 95.883,29.719L99.094,29.719L100.781,29.695C103.547,29.695 105.516,29.355 106.688,28.676C107.859,27.996 108.445,26.852 108.445,25.242C108.445,24.305 107.984,23.367 107.063,22.43L109.664,19.805C110.32,20.68 110.648,21.789 110.648,23.133C110.648,26.102 109.387,28.469 106.863,30.234C104.34,32 100.969,32.883 96.75,32.883L96.328,32.883C95.531,36.555 93.656,39.875 90.703,42.844C92.281,45.047 93.742,46.148 95.086,46.148C96.164,46.148 97.289,45.336 98.461,43.711C98.711,43.93 98.836,44.188 98.836,44.484C98.836,45.297 98.168,46.246 96.832,47.332C95.496,48.418 94.328,48.961 93.328,48.961C91.859,48.961 90.125,47.719 88.125,45.234ZM82.453,28.289C86.125,26.133 87.961,23.672 87.961,20.906C87.961,19.828 87.586,18.898 86.836,18.117C86.086,17.336 85.195,16.945 84.164,16.945C81.789,16.945 80.602,18.43 80.602,21.398C80.602,22.992 81.219,25.289 82.453,28.289ZM87.492,44.438L86.93,43.664C84.398,40.086 82.117,36.023 80.086,31.477L79.688,30.586C75.609,32.57 73.57,35.547 73.57,39.516C73.57,41.672 74.281,43.445 75.703,44.836C77.125,46.227 78.93,46.922 81.117,46.922C83.242,46.922 85.367,46.094 87.492,44.438ZM90.023,42C92.117,38.969 93.289,35.93 93.539,32.883L92.859,32.883C89.5,32.883 87.008,33.328 85.383,34.219C85.664,34.734 85.828,35.039 85.875,35.133L87.469,37.875C88.641,39.891 89.492,41.266 90.023,42Z" style="fill-rule:nonzero;"/>
                </g>
            </g>
            <g transform="matrix(1,0,0,1,39.5473,266.134)">
                <path d="M27.445,-8.18C27.805,-8.008 27.984,-7.758 27.984,-7.43C27.984,-6.398 27.039,-5.039 25.148,-3.352C21.945,-0.492 18.305,0.938 14.227,0.938C10.93,0.938 8.301,-0.254 6.34,-2.637C4.379,-5.02 3.398,-8.219 3.398,-12.234C3.398,-17.969 5.234,-22.773 8.906,-26.648C12.578,-30.523 17.133,-32.461 22.57,-32.461C25.336,-32.461 28.203,-31.938 31.172,-30.891L29.602,-27.445L29.156,-26.438C28.781,-25.641 28.32,-25.242 27.773,-25.242C27.664,-25.242 27.5,-25.266 27.281,-25.313C27.5,-25.797 27.609,-26.195 27.609,-26.508C27.609,-27.555 26.91,-28.469 25.512,-29.25C24.113,-30.031 22.484,-30.422 20.625,-30.422C16.813,-30.422 13.715,-28.914 11.332,-25.898C8.949,-22.883 7.758,-18.961 7.758,-14.133C7.758,-10.398 8.594,-7.422 10.266,-5.203C11.938,-2.984 14.172,-1.875 16.969,-1.875C18.984,-1.875 20.996,-2.48 23.004,-3.691C25.012,-4.902 26.492,-6.398 27.445,-8.18Z" style="fill-rule:nonzero;"/>
                <path d="M38.484,-12.938C40.313,-15.688 42.324,-17.957 44.52,-19.746C46.715,-21.535 48.594,-22.43 50.156,-22.43C51.672,-22.43 52.43,-21.375 52.43,-19.266C52.43,-18.641 52.336,-17.68 52.148,-16.383L50.906,-7.641C50.656,-5.891 50.531,-4.508 50.531,-3.492C50.531,-2.68 50.75,-2.273 51.188,-2.273C52.266,-2.273 53.586,-3.711 55.148,-6.586C55.539,-6.352 55.734,-6.109 55.734,-5.859C55.734,-4.844 54.863,-3.512 53.121,-1.863C51.379,-0.215 49.961,0.609 48.867,0.609C47.648,0.609 47.039,-0.266 47.039,-2.016C47.039,-3.297 47.203,-5.07 47.531,-7.336L48.328,-13.008C48.594,-14.867 48.727,-16.344 48.727,-17.438C48.727,-18.641 48.297,-19.242 47.438,-19.242C45.438,-19.242 43.414,-17.887 41.367,-15.176C39.32,-12.465 38.117,-9.555 37.758,-6.445L37.148,-0.82L33.656,0.609L33.727,-0.047L33.914,-1.781L34.102,-3.422L36.375,-23.953C36.922,-28.797 38.719,-32.934 41.766,-36.363C44.813,-39.793 48.219,-41.508 51.984,-41.508C52.766,-41.508 53.523,-41.422 54.258,-41.25L50.813,-37.875C49.922,-38.141 49.078,-38.273 48.281,-38.273C43.641,-38.273 40.914,-34.648 40.102,-27.398L38.484,-12.938Z" style="fill-rule:nonzero;"/>
                <path d="M74.883,-9.211C73.102,-6.477 71.094,-4.156 68.859,-2.25C66.625,-0.344 64.805,0.609 63.398,0.609C61.852,0.609 61.078,-0.422 61.078,-2.484C61.078,-3.25 61.18,-4.508 61.383,-6.258L62.227,-13.945C62.242,-14.055 62.281,-14.508 62.344,-15.305L62.484,-16.828C62.531,-17.281 62.555,-17.688 62.555,-18.047C62.555,-18.953 62.297,-19.406 61.781,-19.406C60.594,-19.406 59.313,-18.07 57.938,-15.398C57.641,-15.633 57.492,-15.883 57.492,-16.148C57.492,-17.117 58.355,-18.406 60.082,-20.016C61.809,-21.625 63.18,-22.43 64.195,-22.43C65.492,-22.43 66.141,-21.539 66.141,-19.758C66.141,-19.336 66.109,-18.844 66.047,-18.281L65.836,-16.477L65.625,-14.508L64.875,-7.805C64.75,-6.664 64.688,-5.508 64.688,-4.336C64.688,-3.258 65.086,-2.719 65.883,-2.719C67.648,-2.719 69.645,-4.172 71.871,-7.078C74.098,-9.984 75.414,-12.859 75.82,-15.703L76.617,-21.258L80.414,-22.547C79.977,-20.734 79.648,-19.117 79.43,-17.695L78.023,-7.898C77.945,-7.305 77.883,-6.805 77.836,-6.398L77.672,-5.109C77.578,-4.313 77.531,-3.75 77.531,-3.422C77.531,-2.75 77.719,-2.414 78.094,-2.414C79.422,-2.414 80.773,-3.883 82.148,-6.82C82.57,-6.57 82.781,-6.32 82.781,-6.07C82.781,-5.523 82.102,-4.422 80.742,-2.766C78.914,-0.516 77.219,0.609 75.656,0.609C74.516,0.609 73.945,-0.156 73.945,-1.688C73.945,-2.172 74,-2.82 74.109,-3.633L74.367,-5.508C74.508,-6.523 74.602,-7.211 74.648,-7.57L74.883,-9.211Z" style="fill-rule:nonzero;"/>
                <path d="M92.484,-12.563C95.953,-19.141 99.367,-22.43 102.727,-22.43C103.602,-22.43 104.477,-22.227 105.352,-21.82L102.047,-18.211C101.547,-18.492 100.906,-18.633 100.125,-18.633C98.5,-18.633 96.785,-17.316 94.98,-14.684C93.176,-12.051 92.117,-9.313 91.805,-6.469L91.172,-0.75L87.703,0.422L87.773,-0.281L87.938,-1.805L88.125,-3.328L89.344,-14.484L89.484,-15.703C89.594,-16.625 89.648,-17.375 89.648,-17.953C89.648,-18.906 89.383,-19.383 88.852,-19.383C87.602,-19.383 86.359,-18.047 85.125,-15.375C84.734,-15.672 84.547,-15.977 84.563,-16.289C84.609,-17.242 85.48,-18.504 87.176,-20.074C88.871,-21.645 90.211,-22.43 91.195,-22.43C92.523,-22.43 93.188,-21.555 93.188,-19.805C93.188,-19.383 93.148,-18.813 93.07,-18.094L92.906,-16.453L92.695,-14.484L92.484,-12.563Z" style="fill-rule:nonzero;"/>
                <path d="M121.148,-21.82L118.477,-18.609C117.227,-19.125 116.031,-19.383 114.891,-19.383C112.844,-19.383 111.23,-18.516 110.051,-16.781C108.871,-15.047 108.281,-12.672 108.281,-9.656C108.281,-7.531 108.707,-5.82 109.559,-4.523C110.41,-3.227 111.523,-2.578 112.898,-2.578C115.227,-2.578 117.055,-4.102 118.383,-7.148C118.727,-6.773 118.898,-6.422 118.898,-6.094C118.898,-4.797 117.887,-3.355 115.863,-1.77C113.84,-0.184 111.984,0.609 110.297,0.609C108.672,0.609 107.34,-0.043 106.301,-1.348C105.262,-2.652 104.742,-4.344 104.742,-6.422C104.742,-10.469 106.117,-14.148 108.867,-17.461C111.617,-20.773 114.672,-22.43 118.031,-22.43C119.25,-22.43 120.289,-22.227 121.148,-21.82Z" style="fill-rule:nonzero;"/>
                <path d="M129.305,-12.938C131.133,-15.688 133.145,-17.957 135.34,-19.746C137.535,-21.535 139.414,-22.43 140.977,-22.43C142.492,-22.43 143.25,-21.375 143.25,-19.266C143.25,-18.641 143.156,-17.68 142.969,-16.383L141.727,-7.641C141.477,-5.891 141.352,-4.508 141.352,-3.492C141.352,-2.68 141.57,-2.273 142.008,-2.273C143.086,-2.273 144.406,-3.711 145.969,-6.586C146.359,-6.352 146.555,-6.109 146.555,-5.859C146.555,-4.844 145.684,-3.512 143.941,-1.863C142.199,-0.215 140.781,0.609 139.688,0.609C138.469,0.609 137.859,-0.266 137.859,-2.016C137.859,-3.297 138.023,-5.07 138.352,-7.336L139.148,-13.008C139.414,-14.867 139.547,-16.344 139.547,-17.438C139.547,-18.641 139.117,-19.242 138.258,-19.242C136.258,-19.242 134.234,-17.887 132.188,-15.176C130.141,-12.465 128.938,-9.555 128.578,-6.445L127.969,-0.82L124.477,0.609L124.547,-0.047L124.734,-1.781L124.922,-3.422L127.195,-23.953C127.742,-28.797 129.539,-32.934 132.586,-36.363C135.633,-39.793 139.039,-41.508 142.805,-41.508C143.586,-41.508 144.344,-41.422 145.078,-41.25L141.633,-37.875C140.742,-38.141 139.898,-38.273 139.102,-38.273C134.461,-38.273 131.734,-34.648 130.922,-27.398L129.305,-12.938Z" style="fill-rule:nonzero;"/>
            </g>
        </g>
    </g>
</svg>
