<?xml version="1.0" encoding="UTF-8" standalone="no"?>
<!DOCTYPE svg PUBLIC "-//W3C//DTD SVG 1.1//EN" "http://www.w3.org/Graphics/SVG/1.1/DTD/svg11.dtd">
<svg width="100%" height="100%" viewBox="0 0 130 200" version="1.1" xmlns="http://www.w3.org/2000/svg" xmlns:xlink="http://www.w3.org/1999/xlink" xml:space="preserve" xmlns:serif="http://www.serif.com/" style="fill-rule:evenodd;clip-rule:evenodd;stroke-linejoin:round;stroke-miterlimit:2;">
    <g transform="matrix(0.5,0,0,0.5,0,0)">
        <path d="M259.87,31.563C259.87,14.121 245.709,-0.041 228.266,-0.041L32.08,-0.041C14.637,-0.041 0.476,14.121 0.476,31.563L0.476,368.688C0.476,386.13 14.637,400.292 32.08,400.292L228.266,400.292C245.709,400.292 259.87,386.13 259.87,368.688L259.87,31.563Z" style="fill:rgb(128,128,128);"/>
        <g transform="matrix(1,0,0,1,30.3986,11.6595)">
            <g transform="matrix(1.93382,0,0,2.04857,-2.09025,123.795)">
                <path d="M22.852,-1.594L23.273,-1.172C31.102,6.109 37.727,9.75 43.148,9.75C44.367,9.75 45.379,9.391 46.184,8.672C46.988,7.953 47.391,7.047 47.391,5.953C47.391,5.453 47.258,4.93 46.992,4.383L51.094,2.133C51.203,2.57 51.258,2.93 51.258,3.211C51.258,5.336 50.254,7.223 48.246,8.871C46.238,10.52 43.938,11.344 41.344,11.344C38.297,11.344 34.672,10.316 30.469,8.262C26.266,6.207 22.313,3.531 18.609,0.234C16.891,0.719 15.242,0.961 13.664,0.961C10.68,0.961 8.219,-0.254 6.281,-2.684C4.344,-5.113 3.375,-8.211 3.375,-11.977C3.375,-17.492 5.238,-22.285 8.965,-26.355C12.691,-30.426 17.086,-32.461 22.148,-32.461C25.305,-32.461 27.852,-31.273 29.789,-28.898C31.727,-26.523 32.695,-23.406 32.695,-19.547C32.695,-11.859 29.414,-5.875 22.852,-1.594ZM21.891,-2.578C26.141,-5.516 28.266,-10.406 28.266,-17.25C28.266,-21.063 27.41,-24.238 25.699,-26.777C23.988,-29.316 21.852,-30.586 19.289,-30.586C16.023,-30.586 13.297,-29.035 11.109,-25.934C8.922,-22.832 7.828,-18.961 7.828,-14.32C7.828,-10.258 8.652,-7.063 10.301,-4.734C11.949,-2.406 14.281,-1.141 17.297,-0.938L20.508,-4.242C20.711,-4.008 20.844,-3.859 20.906,-3.797L21.563,-2.953C21.609,-2.906 21.719,-2.781 21.891,-2.578Z" style="fill-rule:nonzero;"/>
                <path d="M52.688,-9.211C50.906,-6.477 48.898,-4.156 46.664,-2.25C44.43,-0.344 42.609,0.609 41.203,0.609C39.656,0.609 38.883,-0.422 38.883,-2.484C38.883,-3.25 38.984,-4.508 39.188,-6.258L40.031,-13.945C40.047,-14.055 40.086,-14.508 40.148,-15.305L40.289,-16.828C40.336,-17.281 40.359,-17.688 40.359,-18.047C40.359,-18.953 40.102,-19.406 39.586,-19.406C38.398,-19.406 37.117,-18.07 35.742,-15.398C35.445,-15.633 35.297,-15.883 35.297,-16.148C35.297,-17.117 36.16,-18.406 37.887,-20.016C39.613,-21.625 40.984,-22.43 42,-22.43C43.297,-22.43 43.945,-21.539 43.945,-19.758C43.945,-19.336 43.914,-18.844 43.852,-18.281L43.641,-16.477L43.43,-14.508L42.68,-7.805C42.555,-6.664 42.492,-5.508 42.492,-4.336C42.492,-3.258 42.891,-2.719 43.688,-2.719C45.453,-2.719 47.449,-4.172 49.676,-7.078C51.902,-9.984 53.219,-12.859 53.625,-15.703L54.422,-21.258L58.219,-22.547C57.781,-20.734 57.453,-19.117 57.234,-17.695L55.828,-7.898C55.75,-7.305 55.688,-6.805 55.641,-6.398L55.477,-5.109C55.383,-4.313 55.336,-3.75 55.336,-3.422C55.336,-2.75 55.523,-2.414 55.898,-2.414C57.227,-2.414 58.578,-3.883 59.953,-6.82C60.375,-6.57 60.586,-6.32 60.586,-6.07C60.586,-5.523 59.906,-4.422 58.547,-2.766C56.719,-0.516 55.023,0.609 53.461,0.609C52.32,0.609 51.75,-0.156 51.75,-1.688C51.75,-2.172 51.805,-2.82 51.914,-3.633L52.172,-5.508C52.313,-6.523 52.406,-7.211 52.453,-7.57L52.688,-9.211Z" style="fill-rule:nonzero;"/>
                <path d="M73.992,-6.82C74.414,-6.57 74.625,-6.328 74.625,-6.094C74.625,-5.531 73.945,-4.422 72.586,-2.766C70.758,-0.516 69.063,0.609 67.5,0.609C66.359,0.609 65.789,-0.148 65.789,-1.664C65.789,-2.305 66.023,-4.273 66.492,-7.57L67.406,-13.945L67.641,-15.563L67.828,-16.852C67.906,-17.398 67.945,-17.859 67.945,-18.234C67.945,-19.016 67.727,-19.406 67.289,-19.406C66.07,-19.406 64.758,-18.063 63.352,-15.375C63.055,-15.641 62.906,-15.906 62.906,-16.172C62.906,-17.125 63.785,-18.406 65.543,-20.016C67.301,-21.625 68.703,-22.43 69.75,-22.43C70.922,-22.43 71.508,-21.617 71.508,-19.992C71.508,-19.68 71.445,-19.039 71.32,-18.07L71.109,-16.5C71.094,-16.375 71.008,-15.742 70.852,-14.602L69.891,-7.898L69.656,-6.398C69.453,-4.914 69.352,-3.922 69.352,-3.422C69.352,-2.75 69.547,-2.414 69.938,-2.414C71.25,-2.414 72.602,-3.883 73.992,-6.82ZM69.281,-25.453L71.25,-30.305C73,-31.023 74.438,-32.016 75.563,-33.281C75.719,-33.063 75.797,-32.836 75.797,-32.602C75.797,-30.508 73.625,-28.125 69.281,-25.453Z" style="fill-rule:nonzero;"/>
                <path d="M75.445,0.492L77.391,-3.258C78.281,-4.195 79.141,-5.195 79.969,-6.258L81.469,-8.109C81.969,-8.75 82.352,-9.227 82.617,-9.539L83.695,-10.852C84.039,-11.273 84.586,-11.977 85.336,-12.961L87.445,-15.68L89.25,-18.07C89.375,-18.211 89.555,-18.43 89.789,-18.727C89.477,-18.695 89.25,-18.68 89.109,-18.68C88.016,-18.68 86.531,-18.945 84.656,-19.477L83.813,-19.711L83.109,-19.945C82.672,-20.07 82.289,-20.133 81.961,-20.133C80.867,-20.133 80.32,-19.516 80.32,-18.281C80.32,-17.813 80.445,-17.336 80.695,-16.852L77.953,-14.484C77.891,-15.016 77.859,-15.406 77.859,-15.656C77.859,-17.469 78.465,-19.051 79.676,-20.402C80.887,-21.754 82.305,-22.43 83.93,-22.43C84.367,-22.43 84.922,-22.367 85.594,-22.242L86.953,-22.008L88.078,-21.844C89.375,-21.625 90.281,-21.516 90.797,-21.516C91.953,-21.516 93.18,-21.773 94.477,-22.289L92.438,-18.539C91.281,-17.258 90.102,-15.875 88.898,-14.391L87.047,-12.07L85.406,-10.031L84.328,-8.695L83.344,-7.5C82.438,-6.391 81.93,-5.758 81.82,-5.602L80.695,-3.984C80.57,-3.813 80.281,-3.453 79.828,-2.906C80.688,-3 81.398,-3.047 81.961,-3.047C82.961,-3.047 84.078,-2.961 85.313,-2.789L86.836,-2.578L88.266,-2.391C88.828,-2.313 89.398,-2.273 89.977,-2.273C91.43,-2.273 92.492,-2.727 93.164,-3.633C93.43,-3.383 93.563,-3.156 93.563,-2.953C93.563,-2.141 93.117,-1.363 92.227,-0.621C91.336,0.121 90.398,0.492 89.414,0.492C88.961,0.492 88.391,0.453 87.703,0.375C87.125,0.313 86.617,0.266 86.18,0.234L84.797,0.141C83.656,0.047 82.539,0 81.445,0C79.18,0 77.18,0.164 75.445,0.492Z" style="fill-rule:nonzero;"/>
            </g>
            <g transform="matrix(1,0,0,1,52.1961,210.551)">
                <path d="M7.664,0.539C7.664,-3.086 7.406,-6.531 6.891,-9.797L6.117,-14.766C5.68,-17.594 4.93,-19.047 3.867,-19.125C2.68,-19.219 1.852,-18.039 1.383,-15.586C0.883,-15.727 0.633,-16.039 0.633,-16.523C0.633,-17.711 1.191,-18.992 2.309,-20.367C3.426,-21.742 4.453,-22.43 5.391,-22.43C6.766,-22.43 7.848,-21.297 8.637,-19.031C9.426,-16.766 10.102,-12.875 10.664,-7.359L10.805,-5.93C13.555,-10.977 15.609,-15.586 16.969,-19.758L19.758,-22.43C19.945,-20.32 20.125,-18.688 20.297,-17.531L20.859,-13.781L21.258,-11.156L22.289,-5.156L22.852,-6.07C26.461,-11.977 28.266,-15.766 28.266,-17.438C28.266,-18.344 27.789,-19.117 26.836,-19.758L29.672,-22.43C30.828,-21.789 31.406,-20.938 31.406,-19.875C31.406,-18.594 30.516,-16.477 28.734,-13.523L27.305,-11.156L25.547,-8.086C24.281,-5.883 23.359,-3.922 22.781,-2.203L19.969,0.609C19.75,-2.203 19.367,-5.164 18.82,-8.273L18.422,-10.477L17.414,-15.961L16.313,-13.945C14.313,-10.289 12.625,-6.547 11.25,-2.719L7.664,0.539Z" style="fill-rule:nonzero;"/>
                <path d="M43.969,-6.82C44.391,-6.57 44.602,-6.328 44.602,-6.094C44.602,-5.531 43.922,-4.422 42.563,-2.766C40.734,-0.516 39.039,0.609 37.477,0.609C36.336,0.609 35.766,-0.148 35.766,-1.664C35.766,-2.305 36,-4.273 36.469,-7.57L37.383,-13.945L37.617,-15.563L37.805,-16.852C37.883,-17.398 37.922,-17.859 37.922,-18.234C37.922,-19.016 37.703,-19.406 37.266,-19.406C36.047,-19.406 34.734,-18.063 33.328,-15.375C33.031,-15.641 32.883,-15.906 32.883,-16.172C32.883,-17.125 33.762,-18.406 35.52,-20.016C37.277,-21.625 38.68,-22.43 39.727,-22.43C40.898,-22.43 41.484,-21.617 41.484,-19.992C41.484,-19.68 41.422,-19.039 41.297,-18.07L41.086,-16.5C41.07,-16.375 40.984,-15.742 40.828,-14.602L39.867,-7.898L39.633,-6.398C39.43,-4.914 39.328,-3.922 39.328,-3.422C39.328,-2.75 39.523,-2.414 39.914,-2.414C41.227,-2.414 42.578,-3.883 43.969,-6.82ZM39.258,-25.453L41.227,-30.305C42.977,-31.023 44.414,-32.016 45.539,-33.281C45.695,-33.063 45.773,-32.836 45.773,-32.602C45.773,-30.508 43.602,-28.125 39.258,-25.453Z" style="fill-rule:nonzero;"/>
                <path d="M54.164,-19.102L52.992,-8.742C52.789,-6.883 52.688,-5.508 52.688,-4.617C52.688,-2.852 53.289,-1.969 54.492,-1.969C55.789,-1.969 57.133,-3.031 58.523,-5.156C58.758,-4.859 58.875,-4.594 58.875,-4.359C58.875,-3.484 58.105,-2.438 56.566,-1.219C55.027,0 53.703,0.609 52.594,0.609C50.375,0.609 49.266,-0.813 49.266,-3.656C49.266,-4.703 49.398,-6.398 49.664,-8.742L50.813,-19.102L45.867,-19.102L48.609,-21.82L51.117,-21.82L51.609,-26.086L55.055,-27.234L54.469,-21.82L64.406,-21.82L61.664,-19.102L54.164,-19.102Z" style="fill-rule:nonzero;"/>
                <path d="M69.914,-12.938C71.742,-15.688 73.754,-17.957 75.949,-19.746C78.145,-21.535 80.023,-22.43 81.586,-22.43C83.102,-22.43 83.859,-21.375 83.859,-19.266C83.859,-18.641 83.766,-17.68 83.578,-16.383L82.336,-7.641C82.086,-5.891 81.961,-4.508 81.961,-3.492C81.961,-2.68 82.18,-2.273 82.617,-2.273C83.695,-2.273 85.016,-3.711 86.578,-6.586C86.969,-6.352 87.164,-6.109 87.164,-5.859C87.164,-4.844 86.293,-3.512 84.551,-1.863C82.809,-0.215 81.391,0.609 80.297,0.609C79.078,0.609 78.469,-0.266 78.469,-2.016C78.469,-3.297 78.633,-5.07 78.961,-7.336L79.758,-13.008C80.023,-14.867 80.156,-16.344 80.156,-17.438C80.156,-18.641 79.727,-19.242 78.867,-19.242C76.867,-19.242 74.844,-17.887 72.797,-15.176C70.75,-12.465 69.547,-9.555 69.188,-6.445L68.578,-0.82L65.086,0.609L65.156,-0.047L65.344,-1.781L65.531,-3.422L67.805,-23.953C68.352,-28.797 70.148,-32.934 73.195,-36.363C76.242,-39.793 79.648,-41.508 83.414,-41.508C84.195,-41.508 84.953,-41.422 85.688,-41.25L82.242,-37.875C81.352,-38.141 80.508,-38.273 79.711,-38.273C75.07,-38.273 72.344,-34.648 71.531,-27.398L69.914,-12.938Z" style="fill-rule:nonzero;"/>
                <path d="M7.195,29.813L3.375,33.469C3.016,32.25 2.836,31.031 2.836,29.813C2.836,25.938 4.301,22.723 7.23,20.168C10.16,17.613 13.844,16.336 18.281,16.336C19.016,16.336 19.664,16.367 20.227,16.43C20.602,16.461 20.852,16.477 20.977,16.477L21.281,16.477C21.266,16.93 21.258,17.258 21.258,17.461C21.258,19.867 22.305,23.742 24.398,29.086L25.453,31.758C25.594,32.133 25.82,32.75 26.133,33.609L27,36.047C27.469,37.328 27.875,38.602 28.219,39.867L29.438,37.852C30.781,35.617 31.984,33.586 33.047,31.758L35.344,27.797L37.125,24.516L39.281,20.578C39.484,20.219 39.883,19.484 40.477,18.375L45,15.539C44,21.367 43.5,26.047 43.5,29.578L43.195,37.242L43.125,40.125C43.125,42.563 43.285,44.16 43.605,44.918C43.926,45.676 44.609,46.055 45.656,46.055C46.766,46.055 47.758,45.898 48.633,45.586C48.773,45.773 48.844,45.938 48.844,46.078C48.844,46.594 48.313,46.977 47.25,47.227L46.008,47.531L39.352,48.891C39.273,47.422 39.234,46.07 39.234,44.836C39.234,36.867 39.586,29.789 40.289,23.602C38.133,26.664 36.508,29.148 35.414,31.055L34.008,33.469C32.086,36.781 30.531,39.977 29.344,43.055L25.969,46.57C25.75,43.617 24.586,39.469 22.477,34.125L21.563,31.758C21.438,31.477 21.156,30.789 20.719,29.695C19.828,27.539 19.164,25.477 18.727,23.508L16.828,35.109C16.266,38.594 15.68,40.965 15.07,42.223C14.461,43.48 13.383,44.516 11.836,45.328L17.742,45.773L14.742,48.516L4.734,48L7.758,45.094L10.406,45.328C11.438,44.563 12.172,43.625 12.609,42.516C13.047,41.406 13.555,39.164 14.133,35.789L16.945,19.313L15.844,19.313C9.344,19.313 6.094,21.461 6.094,25.758C6.094,27.102 6.461,28.453 7.195,29.813Z" style="fill-rule:nonzero;"/>
                <path d="M61.406,41.18C61.828,41.43 62.039,41.672 62.039,41.906C62.039,42.469 61.359,43.578 60,45.234C58.172,47.484 56.477,48.609 54.914,48.609C53.773,48.609 53.203,47.852 53.203,46.336C53.203,45.695 53.438,43.727 53.906,40.43L54.82,34.055L55.055,32.438L55.242,31.148C55.32,30.602 55.359,30.141 55.359,29.766C55.359,28.984 55.141,28.594 54.703,28.594C53.484,28.594 52.172,29.938 50.766,32.625C50.469,32.359 50.32,32.094 50.32,31.828C50.32,30.875 51.199,29.594 52.957,27.984C54.715,26.375 56.117,25.57 57.164,25.57C58.336,25.57 58.922,26.383 58.922,28.008C58.922,28.32 58.859,28.961 58.734,29.93L58.523,31.5C58.508,31.625 58.422,32.258 58.266,33.398L57.305,40.102L57.07,41.602C56.867,43.086 56.766,44.078 56.766,44.578C56.766,45.25 56.961,45.586 57.352,45.586C58.664,45.586 60.016,44.117 61.406,41.18ZM56.695,22.547L58.664,17.695C60.414,16.977 61.852,15.984 62.977,14.719C63.133,14.938 63.211,15.164 63.211,15.398C63.211,17.492 61.039,19.875 56.695,22.547Z" style="fill-rule:nonzero;"/>
                <path d="M73.758,41.109C74.211,41.328 74.438,41.609 74.438,41.953C74.438,43.078 73.598,44.469 71.918,46.125C70.238,47.781 68.828,48.609 67.688,48.609C66.391,48.609 65.742,47.672 65.742,45.797C65.742,44.656 65.813,43.492 65.953,42.305L66.211,40.219L68.016,23.906C68.578,18.938 70.285,14.789 73.137,11.461C75.988,8.133 79.273,6.469 82.992,6.469C83.898,6.469 84.664,6.547 85.289,6.703L81.961,10.102C81.227,9.852 80.367,9.727 79.383,9.727C77.039,9.727 75.285,10.551 74.121,12.199C72.957,13.848 72.156,16.641 71.719,20.578L69.539,40.219C69.367,41.734 69.281,42.82 69.281,43.477C69.281,44.883 69.523,45.586 70.008,45.586C70.586,45.586 71.266,45.121 72.047,44.191C72.828,43.262 73.398,42.234 73.758,41.109Z" style="fill-rule:nonzero;"/>
                <path d="M86.555,41.109C87.008,41.328 87.234,41.609 87.234,41.953C87.234,43.078 86.395,44.469 84.715,46.125C83.035,47.781 81.625,48.609 80.484,48.609C79.188,48.609 78.539,47.672 78.539,45.797C78.539,44.656 78.609,43.492 78.75,42.305L79.008,40.219L80.813,23.906C81.375,18.938 83.082,14.789 85.934,11.461C88.785,8.133 92.07,6.469 95.789,6.469C96.695,6.469 97.461,6.547 98.086,6.703L94.758,10.102C94.023,9.852 93.164,9.727 92.18,9.727C89.836,9.727 88.082,10.551 86.918,12.199C85.754,13.848 84.953,16.641 84.516,20.578L82.336,40.219C82.164,41.734 82.078,42.82 82.078,43.477C82.078,44.883 82.32,45.586 82.805,45.586C83.383,45.586 84.063,45.121 84.844,44.191C85.625,43.262 86.195,42.234 86.555,41.109Z" style="fill-rule:nonzero;"/>
            </g>
        </g>
    </g>
</svg>
