<?xml version="1.0" encoding="UTF-8" standalone="no"?>
<!DOCTYPE svg PUBLIC "-//W3C//DTD SVG 1.1//EN" "http://www.w3.org/Graphics/SVG/1.1/DTD/svg11.dtd">
<svg width="100%" height="100%" viewBox="0 0 130 200" version="1.1" xmlns="http://www.w3.org/2000/svg" xmlns:xlink="http://www.w3.org/1999/xlink" xml:space="preserve" xmlns:serif="http://www.serif.com/" style="fill-rule:evenodd;clip-rule:evenodd;stroke-linejoin:round;stroke-miterlimit:2;">
    <g transform="matrix(0.5,0,0,0.5,0,0)">
        <path d="M259.87,31.563C259.87,14.121 245.709,-0.041 228.266,-0.041L32.08,-0.041C14.637,-0.041 0.476,14.121 0.476,31.563L0.476,368.688C0.476,386.13 14.637,400.292 32.08,400.292L228.266,400.292C245.709,400.292 259.87,386.13 259.87,368.688L259.87,31.563Z" style="fill:rgb(128,128,128);"/>
        <g transform="matrix(0.780955,0,0,0.780955,57.3456,3.42402)">
            <g transform="matrix(1,0,0,1,-23.055,167.124)">
                <path d="M58.522,-4.082L59.602,-3.001C79.65,15.646 96.616,24.969 110.501,24.969C113.623,24.969 116.213,24.049 118.274,22.208C120.335,20.368 121.365,18.047 121.365,15.246C121.365,13.965 121.025,12.625 120.345,11.224L130.849,5.462C131.129,6.582 131.269,7.503 131.269,8.223C131.269,13.665 128.698,18.497 123.556,22.719C118.414,26.94 112.522,29.051 105.88,29.051C98.077,29.051 88.793,26.42 78.029,21.158C67.265,15.896 57.141,9.043 47.658,0.6C43.256,1.841 39.035,2.461 34.993,2.461C27.35,2.461 21.048,-0.65 16.086,-6.873C11.124,-13.095 8.643,-21.028 8.643,-30.671C8.643,-44.797 13.415,-57.071 22.959,-67.495C32.502,-77.919 43.756,-83.131 56.721,-83.131C64.804,-83.131 71.327,-80.09 76.289,-74.008C81.25,-67.925 83.731,-59.942 83.731,-50.059C83.731,-30.371 75.328,-15.046 58.522,-4.082ZM56.061,-6.602C66.945,-14.125 72.387,-26.65 72.387,-44.177C72.387,-53.94 70.196,-62.073 65.815,-68.576C61.433,-75.078 55.961,-78.329 49.398,-78.329C41.035,-78.329 34.053,-74.358 28.451,-66.415C22.849,-58.472 20.048,-48.558 20.048,-36.674C20.048,-26.27 22.158,-18.087 26.38,-12.125C30.601,-6.162 36.574,-2.921 44.297,-2.401L52.52,-10.864C53.04,-10.264 53.38,-9.884 53.54,-9.724L55.221,-7.563C55.341,-7.443 55.621,-7.123 56.061,-6.602Z" style="fill-rule:nonzero;"/>
                <path d="M134.93,-23.589C130.369,-16.586 125.227,-10.644 119.505,-5.762C113.783,-0.88 109.121,1.561 105.519,1.561C101.558,1.561 99.577,-1.08 99.577,-6.362C99.577,-8.323 99.837,-11.544 100.358,-16.026L102.518,-35.713C102.558,-35.993 102.658,-37.154 102.818,-39.195L103.179,-43.096C103.299,-44.257 103.359,-45.297 103.359,-46.217C103.359,-48.538 102.698,-49.699 101.378,-49.699C98.337,-49.699 95.056,-46.277 91.534,-39.435C90.774,-40.035 90.394,-40.675 90.394,-41.355C90.394,-43.836 92.605,-47.138 97.026,-51.259C101.448,-55.381 104.959,-57.441 107.56,-57.441C110.881,-57.441 112.542,-55.161 112.542,-50.599C112.542,-49.519 112.462,-48.258 112.302,-46.818L111.762,-42.196L111.222,-37.154L109.301,-19.987C108.981,-17.066 108.821,-14.105 108.821,-11.104C108.821,-8.343 109.841,-6.963 111.882,-6.963C116.404,-6.963 121.515,-10.684 127.218,-18.127C132.92,-25.57 136.291,-32.932 137.331,-40.215L139.372,-54.44L149.096,-57.742C147.975,-53.1 147.135,-48.958 146.575,-45.317L142.974,-20.228C142.773,-18.707 142.613,-17.427 142.493,-16.386L142.073,-13.085C141.833,-11.044 141.713,-9.604 141.713,-8.763C141.713,-7.043 142.193,-6.182 143.154,-6.182C146.555,-6.182 150.016,-9.944 153.537,-17.467C154.618,-16.826 155.158,-16.186 155.158,-15.546C155.158,-14.145 153.417,-11.324 149.936,-7.083C145.254,-1.32 140.913,1.561 136.911,1.561C133.99,1.561 132.53,-0.4 132.53,-4.322C132.53,-5.562 132.67,-7.223 132.95,-9.303L133.61,-14.105C133.97,-16.706 134.21,-18.467 134.33,-19.387L134.93,-23.589Z" style="fill-rule:nonzero;"/>
                <path d="M189.491,-17.467C190.571,-16.826 191.112,-16.206 191.112,-15.606C191.112,-14.165 189.371,-11.324 185.89,-7.083C181.208,-1.32 176.866,1.561 172.865,1.561C169.944,1.561 168.483,-0.38 168.483,-4.262C168.483,-5.902 169.083,-10.944 170.284,-19.387L172.625,-35.713L173.225,-39.855L173.705,-43.156C173.905,-44.557 174.005,-45.737 174.005,-46.697C174.005,-48.698 173.445,-49.699 172.324,-49.699C169.203,-49.699 165.842,-46.257 162.241,-39.375C161.48,-40.055 161.1,-40.735 161.1,-41.415C161.1,-43.856 163.351,-47.138 167.853,-51.259C172.354,-55.381 175.946,-57.441 178.627,-57.441C181.628,-57.441 183.129,-55.361 183.129,-51.199C183.129,-50.399 182.968,-48.758 182.648,-46.277L182.108,-42.256C182.068,-41.936 181.848,-40.315 181.448,-37.394L178.987,-20.228L178.387,-16.386C177.867,-12.585 177.606,-10.044 177.606,-8.763C177.606,-7.043 178.107,-6.182 179.107,-6.182C182.468,-6.182 185.93,-9.944 189.491,-17.467ZM177.426,-65.184L182.468,-77.609C186.95,-79.45 190.631,-81.991 193.512,-85.232C193.913,-84.672 194.113,-84.091 194.113,-83.491C194.113,-78.129 188.551,-72.027 177.426,-65.184Z" style="fill-rule:nonzero;"/>
                <path d="M193.212,1.26L198.194,-8.343C200.475,-10.744 202.676,-13.305 204.797,-16.026L208.638,-20.768C209.919,-22.408 210.899,-23.629 211.579,-24.429L214.34,-27.79C215.221,-28.871 216.621,-30.671 218.542,-33.192L223.944,-40.155L228.566,-46.277C228.886,-46.637 229.346,-47.198 229.946,-47.958C229.146,-47.878 228.566,-47.838 228.205,-47.838C225.404,-47.838 221.603,-48.518 216.801,-49.879L214.64,-50.479L212.84,-51.079C211.719,-51.399 210.739,-51.559 209.899,-51.559C207.097,-51.559 205.697,-49.979 205.697,-46.818C205.697,-45.617 206.017,-44.397 206.657,-43.156L199.635,-37.094C199.475,-38.454 199.395,-39.455 199.395,-40.095C199.395,-44.737 200.945,-48.788 204.046,-52.25C207.148,-55.711 210.779,-57.441 214.94,-57.441C216.061,-57.441 217.481,-57.281 219.202,-56.961L222.683,-56.361L225.564,-55.941C228.886,-55.381 231.207,-55.101 232.527,-55.101C235.488,-55.101 238.629,-55.761 241.951,-57.081L236.729,-47.478C233.767,-44.197 230.746,-40.655 227.665,-36.854L222.923,-30.912L218.722,-25.69L215.961,-22.268L213.44,-19.207C211.119,-16.366 209.819,-14.746 209.538,-14.345L206.657,-10.204C206.337,-9.764 205.597,-8.843 204.437,-7.443C206.637,-7.683 208.458,-7.803 209.899,-7.803C212.46,-7.803 215.321,-7.583 218.482,-7.143L222.383,-6.602L226.045,-6.122C227.485,-5.922 228.946,-5.822 230.426,-5.822C234.148,-5.822 236.869,-6.983 238.589,-9.303C239.27,-8.663 239.61,-8.083 239.61,-7.563C239.61,-5.482 238.469,-3.491 236.188,-1.591C233.908,0.31 231.507,1.26 228.986,1.26C227.825,1.26 226.365,1.16 224.604,0.96C223.123,0.8 221.823,0.68 220.703,0.6L217.161,0.36C214.24,0.12 211.379,0 208.578,0C202.776,0 197.654,0.42 193.212,1.26Z" style="fill-rule:nonzero;"/>
            </g>
            <g transform="matrix(1,0,0,1,54.011,263.124)">
                <path d="M7.664,0.539C7.664,-3.086 7.406,-6.531 6.891,-9.797L6.117,-14.766C5.68,-17.594 4.93,-19.047 3.867,-19.125C2.68,-19.219 1.852,-18.039 1.383,-15.586C0.883,-15.727 0.633,-16.039 0.633,-16.523C0.633,-17.711 1.191,-18.992 2.309,-20.367C3.426,-21.742 4.453,-22.43 5.391,-22.43C6.766,-22.43 7.848,-21.297 8.637,-19.031C9.426,-16.766 10.102,-12.875 10.664,-7.359L10.805,-5.93C13.555,-10.977 15.609,-15.586 16.969,-19.758L19.758,-22.43C19.945,-20.32 20.125,-18.688 20.297,-17.531L20.859,-13.781L21.258,-11.156L22.289,-5.156L22.852,-6.07C26.461,-11.977 28.266,-15.766 28.266,-17.438C28.266,-18.344 27.789,-19.117 26.836,-19.758L29.672,-22.43C30.828,-21.789 31.406,-20.938 31.406,-19.875C31.406,-18.594 30.516,-16.477 28.734,-13.523L27.305,-11.156L25.547,-8.086C24.281,-5.883 23.359,-3.922 22.781,-2.203L19.969,0.609C19.75,-2.203 19.367,-5.164 18.82,-8.273L18.422,-10.477L17.414,-15.961L16.313,-13.945C14.313,-10.289 12.625,-6.547 11.25,-2.719L7.664,0.539Z" style="fill-rule:nonzero;"/>
                <path d="M43.969,-6.82C44.391,-6.57 44.602,-6.328 44.602,-6.094C44.602,-5.531 43.922,-4.422 42.563,-2.766C40.734,-0.516 39.039,0.609 37.477,0.609C36.336,0.609 35.766,-0.148 35.766,-1.664C35.766,-2.305 36,-4.273 36.469,-7.57L37.383,-13.945L37.617,-15.563L37.805,-16.852C37.883,-17.398 37.922,-17.859 37.922,-18.234C37.922,-19.016 37.703,-19.406 37.266,-19.406C36.047,-19.406 34.734,-18.063 33.328,-15.375C33.031,-15.641 32.883,-15.906 32.883,-16.172C32.883,-17.125 33.762,-18.406 35.52,-20.016C37.277,-21.625 38.68,-22.43 39.727,-22.43C40.898,-22.43 41.484,-21.617 41.484,-19.992C41.484,-19.68 41.422,-19.039 41.297,-18.07L41.086,-16.5C41.07,-16.375 40.984,-15.742 40.828,-14.602L39.867,-7.898L39.633,-6.398C39.43,-4.914 39.328,-3.922 39.328,-3.422C39.328,-2.75 39.523,-2.414 39.914,-2.414C41.227,-2.414 42.578,-3.883 43.969,-6.82ZM39.258,-25.453L41.227,-30.305C42.977,-31.023 44.414,-32.016 45.539,-33.281C45.695,-33.063 45.773,-32.836 45.773,-32.602C45.773,-30.508 43.602,-28.125 39.258,-25.453Z" style="fill-rule:nonzero;"/>
                <path d="M54.164,-19.102L52.992,-8.742C52.789,-6.883 52.688,-5.508 52.688,-4.617C52.688,-2.852 53.289,-1.969 54.492,-1.969C55.789,-1.969 57.133,-3.031 58.523,-5.156C58.758,-4.859 58.875,-4.594 58.875,-4.359C58.875,-3.484 58.105,-2.438 56.566,-1.219C55.027,0 53.703,0.609 52.594,0.609C50.375,0.609 49.266,-0.813 49.266,-3.656C49.266,-4.703 49.398,-6.398 49.664,-8.742L50.813,-19.102L45.867,-19.102L48.609,-21.82L51.117,-21.82L51.609,-26.086L55.055,-27.234L54.469,-21.82L64.406,-21.82L61.664,-19.102L54.164,-19.102Z" style="fill-rule:nonzero;"/>
                <path d="M69.914,-12.938C71.742,-15.688 73.754,-17.957 75.949,-19.746C78.145,-21.535 80.023,-22.43 81.586,-22.43C83.102,-22.43 83.859,-21.375 83.859,-19.266C83.859,-18.641 83.766,-17.68 83.578,-16.383L82.336,-7.641C82.086,-5.891 81.961,-4.508 81.961,-3.492C81.961,-2.68 82.18,-2.273 82.617,-2.273C83.695,-2.273 85.016,-3.711 86.578,-6.586C86.969,-6.352 87.164,-6.109 87.164,-5.859C87.164,-4.844 86.293,-3.512 84.551,-1.863C82.809,-0.215 81.391,0.609 80.297,0.609C79.078,0.609 78.469,-0.266 78.469,-2.016C78.469,-3.297 78.633,-5.07 78.961,-7.336L79.758,-13.008C80.023,-14.867 80.156,-16.344 80.156,-17.438C80.156,-18.641 79.727,-19.242 78.867,-19.242C76.867,-19.242 74.844,-17.887 72.797,-15.176C70.75,-12.465 69.547,-9.555 69.188,-6.445L68.578,-0.82L65.086,0.609L65.156,-0.047L65.344,-1.781L65.531,-3.422L67.805,-23.953C68.352,-28.797 70.148,-32.934 73.195,-36.363C76.242,-39.793 79.648,-41.508 83.414,-41.508C84.195,-41.508 84.953,-41.422 85.688,-41.25L82.242,-37.875C81.352,-38.141 80.508,-38.273 79.711,-38.273C75.07,-38.273 72.344,-34.648 71.531,-27.398L69.914,-12.938Z" style="fill-rule:nonzero;"/>
            </g>
            <g transform="matrix(1,0,0,1,-9.821,311.124)">
                <path d="M7.477,-18.141L3.797,-14.602C3.156,-16.273 2.836,-17.891 2.836,-19.453C2.836,-23.328 4.516,-26.453 7.875,-28.828C10.688,-30.828 15.5,-31.828 22.313,-31.828C23.469,-31.828 24.484,-31.805 25.359,-31.758C27.781,-31.602 29.023,-31.523 29.086,-31.523L30.727,-31.523C29.508,-29.617 28.898,-25.758 28.898,-19.945L28.922,-18.727L29.016,-16.031C29.016,-12.797 29.414,-9.484 30.211,-6.094C30.523,-4.781 30.828,-3.938 31.125,-3.563C31.422,-3.188 31.938,-3 32.672,-3C33.469,-3 34.375,-3.258 35.391,-3.773C35.5,-3.508 35.555,-3.289 35.555,-3.117C35.555,-2.727 35.25,-2.391 34.641,-2.109L33.539,-1.57L27.773,0.938C26.492,-3.016 25.719,-7.156 25.453,-11.484L23.672,-10.242L15.797,-10.242C14.359,-6.586 12.391,-3.977 9.891,-2.414L14.742,-2.18L12.211,0.492L2.859,0.164L5.977,-2.648L8.32,-2.508C9.383,-3.289 10.289,-4.387 11.039,-5.801C11.789,-7.215 12.906,-9.953 14.391,-14.016L15.094,-15.961C16.531,-19.883 17.898,-22.738 19.195,-24.527C20.492,-26.316 22.258,-27.789 24.492,-28.945C22.039,-29.398 19.453,-29.625 16.734,-29.625C9.813,-29.625 6.352,-27.289 6.352,-22.617C6.352,-21.023 6.727,-19.531 7.477,-18.141ZM25.406,-12.773C25.188,-15.492 25.078,-17.695 25.078,-19.383C25.078,-20.242 25.094,-20.945 25.125,-21.492L25.313,-24.211C25.438,-26.07 25.609,-27.492 25.828,-28.477C22.766,-26.602 20.25,-22.773 18.281,-16.992C17.719,-15.32 17.391,-14.359 17.297,-14.109L16.758,-12.773L25.406,-12.773Z" style="fill-rule:nonzero;"/>
                <path d="M42.117,0.281L41.93,2.133C41.445,6.977 39.695,11.117 36.68,14.555C33.664,17.992 30.273,19.711 26.508,19.711C25.727,19.711 24.977,19.617 24.258,19.43L27.656,16.055C28.547,16.32 29.391,16.453 30.188,16.453C34.844,16.453 37.531,12.828 38.25,5.578L40.688,-18.727C39.953,-18.18 39.164,-17.547 38.32,-16.828C37.289,-15.953 36.383,-15.266 35.602,-14.766L35.789,-16.641C38.43,-18.203 41.328,-20.438 44.484,-23.344L43.406,-12.492C45.063,-15.398 46.922,-17.781 48.984,-19.641C51.047,-21.5 52.859,-22.43 54.422,-22.43C56.672,-22.43 57.797,-20.508 57.797,-16.664C57.797,-12.086 56.32,-8.113 53.367,-4.746C50.414,-1.379 46.93,0.305 42.914,0.305L42.117,0.281ZM42.469,-3.211C43.734,-2.414 45.164,-2.016 46.758,-2.016C48.898,-2.016 50.637,-3.266 51.973,-5.766C53.309,-8.266 53.977,-11.508 53.977,-15.492C53.977,-17.82 53.344,-18.984 52.078,-18.984C50.688,-18.984 49.039,-17.922 47.133,-15.797C44.586,-12.969 43.117,-9.617 42.727,-5.742L42.469,-3.211Z" style="fill-rule:nonzero;"/>
                <path d="M66,0.281L65.813,2.133C65.328,6.977 63.578,11.117 60.563,14.555C57.547,17.992 54.156,19.711 50.391,19.711C49.609,19.711 48.859,19.617 48.141,19.43L51.539,16.055C52.43,16.32 53.273,16.453 54.07,16.453C58.727,16.453 61.414,12.828 62.133,5.578L64.57,-18.727C63.836,-18.18 63.047,-17.547 62.203,-16.828C61.172,-15.953 60.266,-15.266 59.484,-14.766L59.672,-16.641C62.313,-18.203 65.211,-20.438 68.367,-23.344L67.289,-12.492C68.945,-15.398 70.805,-17.781 72.867,-19.641C74.93,-21.5 76.742,-22.43 78.305,-22.43C80.555,-22.43 81.68,-20.508 81.68,-16.664C81.68,-12.086 80.203,-8.113 77.25,-4.746C74.297,-1.379 70.813,0.305 66.797,0.305L66,0.281ZM66.352,-3.211C67.617,-2.414 69.047,-2.016 70.641,-2.016C72.781,-2.016 74.52,-3.266 75.855,-5.766C77.191,-8.266 77.859,-11.508 77.859,-15.492C77.859,-17.82 77.227,-18.984 75.961,-18.984C74.57,-18.984 72.922,-17.922 71.016,-15.797C68.469,-12.969 67,-9.617 66.609,-5.742L66.352,-3.211Z" style="fill-rule:nonzero;"/>
                <path d="M92.344,-12.563C95.813,-19.141 99.227,-22.43 102.586,-22.43C103.461,-22.43 104.336,-22.227 105.211,-21.82L101.906,-18.211C101.406,-18.492 100.766,-18.633 99.984,-18.633C98.359,-18.633 96.645,-17.316 94.84,-14.684C93.035,-12.051 91.977,-9.313 91.664,-6.469L91.031,-0.75L87.563,0.422L87.633,-0.281L87.797,-1.805L87.984,-3.328L89.203,-14.484L89.344,-15.703C89.453,-16.625 89.508,-17.375 89.508,-17.953C89.508,-18.906 89.242,-19.383 88.711,-19.383C87.461,-19.383 86.219,-18.047 84.984,-15.375C84.594,-15.672 84.406,-15.977 84.422,-16.289C84.469,-17.242 85.34,-18.504 87.035,-20.074C88.73,-21.645 90.07,-22.43 91.055,-22.43C92.383,-22.43 93.047,-21.555 93.047,-19.805C93.047,-19.383 93.008,-18.813 92.93,-18.094L92.766,-16.453L92.555,-14.484L92.344,-12.563Z" style="fill-rule:nonzero;"/>
                <path d="M118.922,-7.453C119.313,-7.188 119.508,-6.875 119.508,-6.516C119.508,-6.031 119.008,-5.203 118.008,-4.031C115.336,-0.938 112.695,0.609 110.086,0.609C108.492,0.609 107.18,-0.023 106.148,-1.289C105.117,-2.555 104.602,-4.172 104.602,-6.141C104.602,-9.703 105.949,-13.309 108.645,-16.957C111.34,-20.605 114.008,-22.43 116.648,-22.43C118.555,-22.43 119.508,-21.406 119.508,-19.359C119.508,-17.063 118.395,-14.82 116.168,-12.633C113.941,-10.445 111.227,-8.922 108.023,-8.063C108.336,-4.297 109.82,-2.414 112.477,-2.414C115.102,-2.414 117.25,-4.094 118.922,-7.453ZM108.117,-10.922C108.57,-10.766 108.984,-10.688 109.359,-10.688C111.297,-10.688 112.992,-11.281 114.445,-12.469C115.898,-13.656 116.625,-15.047 116.625,-16.641C116.625,-18.469 115.695,-19.383 113.836,-19.383C112.492,-19.383 111.277,-18.582 110.191,-16.98C109.105,-15.379 108.414,-13.359 108.117,-10.922Z" style="fill-rule:nonzero;"/>
                <path d="M128.836,-0.82L125.344,0.609L125.414,-0.047L125.602,-1.781L125.789,-3.422L127.008,-14.297L127.148,-15.539C127.242,-16.508 127.289,-17.289 127.289,-17.883C127.289,-18.883 127.039,-19.383 126.539,-19.383C125.367,-19.383 124.109,-18.055 122.766,-15.398C122.406,-15.695 122.227,-15.953 122.227,-16.172C122.227,-17.109 123.082,-18.387 124.793,-20.004C126.504,-21.621 127.852,-22.43 128.836,-22.43C130.18,-22.43 130.852,-21.57 130.852,-19.852C130.852,-19.414 130.813,-18.828 130.734,-18.094L130.547,-16.195L130.359,-14.602L130.172,-12.938C132.016,-15.688 134.035,-17.957 136.23,-19.746C138.426,-21.535 140.297,-22.43 141.844,-22.43C143.359,-22.43 144.117,-21.375 144.117,-19.266C144.117,-18.625 144.031,-17.664 143.859,-16.383L142.594,-7.641C142.344,-5.891 142.219,-4.508 142.219,-3.492C142.219,-2.68 142.438,-2.273 142.875,-2.273C143.953,-2.273 145.281,-3.711 146.859,-6.586C147.234,-6.352 147.422,-6.109 147.422,-5.859C147.422,-4.844 146.551,-3.512 144.809,-1.863C143.066,-0.215 141.648,0.609 140.555,0.609C139.336,0.609 138.727,-0.266 138.727,-2.016C138.727,-3.297 138.891,-5.07 139.219,-7.336L140.039,-13.008C140.305,-14.852 140.438,-16.313 140.438,-17.391C140.438,-18.625 140.008,-19.242 139.148,-19.242C137.148,-19.242 135.121,-17.887 133.066,-15.176C131.012,-12.465 129.813,-9.555 129.469,-6.445L128.836,-0.82Z" style="fill-rule:nonzero;"/>
                <path d="M156.961,-19.102L155.789,-8.742C155.586,-6.883 155.484,-5.508 155.484,-4.617C155.484,-2.852 156.086,-1.969 157.289,-1.969C158.586,-1.969 159.93,-3.031 161.32,-5.156C161.555,-4.859 161.672,-4.594 161.672,-4.359C161.672,-3.484 160.902,-2.438 159.363,-1.219C157.824,0 156.5,0.609 155.391,0.609C153.172,0.609 152.063,-0.813 152.063,-3.656C152.063,-4.703 152.195,-6.398 152.461,-8.742L153.609,-19.102L148.664,-19.102L151.406,-21.82L153.914,-21.82L154.406,-26.086L157.852,-27.234L157.266,-21.82L167.203,-21.82L164.461,-19.102L156.961,-19.102Z" style="fill-rule:nonzero;"/>
                <path d="M177.961,-6.82C178.383,-6.57 178.594,-6.328 178.594,-6.094C178.594,-5.531 177.914,-4.422 176.555,-2.766C174.727,-0.516 173.031,0.609 171.469,0.609C170.328,0.609 169.758,-0.148 169.758,-1.664C169.758,-2.305 169.992,-4.273 170.461,-7.57L171.375,-13.945L171.609,-15.563L171.797,-16.852C171.875,-17.398 171.914,-17.859 171.914,-18.234C171.914,-19.016 171.695,-19.406 171.258,-19.406C170.039,-19.406 168.727,-18.063 167.32,-15.375C167.023,-15.641 166.875,-15.906 166.875,-16.172C166.875,-17.125 167.754,-18.406 169.512,-20.016C171.27,-21.625 172.672,-22.43 173.719,-22.43C174.891,-22.43 175.477,-21.617 175.477,-19.992C175.477,-19.68 175.414,-19.039 175.289,-18.07L175.078,-16.5C175.063,-16.375 174.977,-15.742 174.82,-14.602L173.859,-7.898L173.625,-6.398C173.422,-4.914 173.32,-3.922 173.32,-3.422C173.32,-2.75 173.516,-2.414 173.906,-2.414C175.219,-2.414 176.57,-3.883 177.961,-6.82ZM173.25,-25.453L175.219,-30.305C176.969,-31.023 178.406,-32.016 179.531,-33.281C179.688,-33.063 179.766,-32.836 179.766,-32.602C179.766,-30.508 177.594,-28.125 173.25,-25.453Z" style="fill-rule:nonzero;"/>
                <path d="M197.133,-21.82L194.461,-18.609C193.211,-19.125 192.016,-19.383 190.875,-19.383C188.828,-19.383 187.215,-18.516 186.035,-16.781C184.855,-15.047 184.266,-12.672 184.266,-9.656C184.266,-7.531 184.691,-5.82 185.543,-4.523C186.395,-3.227 187.508,-2.578 188.883,-2.578C191.211,-2.578 193.039,-4.102 194.367,-7.148C194.711,-6.773 194.883,-6.422 194.883,-6.094C194.883,-4.797 193.871,-3.355 191.848,-1.77C189.824,-0.184 187.969,0.609 186.281,0.609C184.656,0.609 183.324,-0.043 182.285,-1.348C181.246,-2.652 180.727,-4.344 180.727,-6.422C180.727,-10.469 182.102,-14.148 184.852,-17.461C187.602,-20.773 190.656,-22.43 194.016,-22.43C195.234,-22.43 196.273,-22.227 197.133,-21.82Z" style="fill-rule:nonzero;"/>
                <path d="M213.422,-7.453C213.813,-7.188 214.008,-6.875 214.008,-6.516C214.008,-6.031 213.508,-5.203 212.508,-4.031C209.836,-0.938 207.195,0.609 204.586,0.609C202.992,0.609 201.68,-0.023 200.648,-1.289C199.617,-2.555 199.102,-4.172 199.102,-6.141C199.102,-9.703 200.449,-13.309 203.145,-16.957C205.84,-20.605 208.508,-22.43 211.148,-22.43C213.055,-22.43 214.008,-21.406 214.008,-19.359C214.008,-17.063 212.895,-14.82 210.668,-12.633C208.441,-10.445 205.727,-8.922 202.523,-8.063C202.836,-4.297 204.32,-2.414 206.977,-2.414C209.602,-2.414 211.75,-4.094 213.422,-7.453ZM202.617,-10.922C203.07,-10.766 203.484,-10.688 203.859,-10.688C205.797,-10.688 207.492,-11.281 208.945,-12.469C210.398,-13.656 211.125,-15.047 211.125,-16.641C211.125,-18.469 210.195,-19.383 208.336,-19.383C206.992,-19.383 205.777,-18.582 204.691,-16.98C203.605,-15.379 202.914,-13.359 202.617,-10.922Z" style="fill-rule:nonzero;"/>
            </g>
            <g transform="matrix(1,0,0,1,35.929,359.124)">
                <path d="M20.883,-31.523C20.18,-27.945 19.758,-25.539 19.617,-24.305L18.891,-17.813L31.969,-17.813L32.063,-18.656C33.078,-27.734 34.875,-33.906 37.453,-37.172C40.609,-41.172 44.109,-43.172 47.953,-43.172C49.391,-43.172 50.727,-42.922 51.961,-42.422L48.492,-39.023C47.18,-39.914 45.875,-40.359 44.578,-40.359C41.938,-40.359 40.102,-39.051 39.07,-36.434C38.039,-33.816 37.016,-27.891 36,-18.656L35.648,-15.469C35.211,-11.359 34.992,-8.18 34.992,-5.93C34.992,-4.602 35.563,-3.938 36.703,-3.938C37.547,-3.938 38.594,-4.297 39.844,-5.016C39.906,-4.734 39.938,-4.539 39.938,-4.43C39.938,-3.961 39.523,-3.539 38.695,-3.164L37.336,-2.531L30.445,0.609C30.445,-2.281 30.82,-7.195 31.57,-14.133L31.664,-14.977L18.586,-14.977L18.352,-12.844L18.047,-10.242C17.781,-8.023 17.301,-6.422 16.605,-5.438C15.91,-4.453 14.578,-3.492 12.609,-2.555L18.141,-2.203L15.328,0.516L5.18,0L8.18,-2.906L10.734,-2.625C11.969,-3.422 12.82,-4.418 13.289,-5.613C13.758,-6.809 14.164,-9.031 14.508,-12.281L16.313,-28.688L15.586,-28.688C9.086,-28.688 5.836,-26.539 5.836,-22.242C5.836,-20.898 6.203,-19.547 6.938,-18.188L3.117,-14.531C2.758,-15.75 2.578,-16.961 2.578,-18.164C2.578,-22.195 4.078,-25.43 7.078,-27.867C10.078,-30.305 14.063,-31.523 19.031,-31.523L20.883,-31.523Z" style="fill-rule:nonzero;"/>
                <path d="M48.328,0.609C44.813,0.609 43.055,-1.719 43.055,-6.375C43.055,-10.125 44.43,-13.738 47.18,-17.215C49.93,-20.691 52.781,-22.43 55.734,-22.43C59.297,-22.43 61.078,-20.102 61.078,-15.445C61.078,-11.68 59.703,-8.063 56.953,-4.594C54.203,-1.125 51.328,0.609 48.328,0.609ZM51.164,-2.016C52.961,-2.016 54.465,-3.016 55.676,-5.016C56.887,-7.016 57.492,-9.508 57.492,-12.492C57.492,-17.367 55.977,-19.805 52.945,-19.805C51.164,-19.805 49.668,-18.801 48.457,-16.793C47.246,-14.785 46.641,-12.297 46.641,-9.328C46.641,-4.453 48.148,-2.016 51.164,-2.016Z" style="fill-rule:nonzero;"/>
                <path d="M80.672,-9.211C78.891,-6.477 76.883,-4.156 74.648,-2.25C72.414,-0.344 70.594,0.609 69.188,0.609C67.641,0.609 66.867,-0.422 66.867,-2.484C66.867,-3.25 66.969,-4.508 67.172,-6.258L68.016,-13.945C68.031,-14.055 68.07,-14.508 68.133,-15.305L68.273,-16.828C68.32,-17.281 68.344,-17.688 68.344,-18.047C68.344,-18.953 68.086,-19.406 67.57,-19.406C66.383,-19.406 65.102,-18.07 63.727,-15.398C63.43,-15.633 63.281,-15.883 63.281,-16.148C63.281,-17.117 64.145,-18.406 65.871,-20.016C67.598,-21.625 68.969,-22.43 69.984,-22.43C71.281,-22.43 71.93,-21.539 71.93,-19.758C71.93,-19.336 71.898,-18.844 71.836,-18.281L71.625,-16.477L71.414,-14.508L70.664,-7.805C70.539,-6.664 70.477,-5.508 70.477,-4.336C70.477,-3.258 70.875,-2.719 71.672,-2.719C73.438,-2.719 75.434,-4.172 77.66,-7.078C79.887,-9.984 81.203,-12.859 81.609,-15.703L82.406,-21.258L86.203,-22.547C85.766,-20.734 85.438,-19.117 85.219,-17.695L83.813,-7.898C83.734,-7.305 83.672,-6.805 83.625,-6.398L83.461,-5.109C83.367,-4.313 83.32,-3.75 83.32,-3.422C83.32,-2.75 83.508,-2.414 83.883,-2.414C85.211,-2.414 86.563,-3.883 87.938,-6.82C88.359,-6.57 88.57,-6.32 88.57,-6.07C88.57,-5.523 87.891,-4.422 86.531,-2.766C84.703,-0.516 83.008,0.609 81.445,0.609C80.305,0.609 79.734,-0.156 79.734,-1.688C79.734,-2.172 79.789,-2.82 79.898,-3.633L80.156,-5.508C80.297,-6.523 80.391,-7.211 80.438,-7.57L80.672,-9.211Z" style="fill-rule:nonzero;"/>
                <path d="M89.133,-0.656L92.367,-3.305C93.586,-2.008 95.117,-1.359 96.961,-1.359C99.211,-1.359 100.336,-2.445 100.336,-4.617C100.336,-5.82 99.305,-7.5 97.242,-9.656L95.906,-11.039C93.953,-13.086 92.977,-14.742 92.977,-16.008C92.977,-17.82 93.762,-19.344 95.332,-20.578C96.902,-21.813 98.836,-22.43 101.133,-22.43C102.383,-22.43 103.75,-22.195 105.234,-21.727L102.422,-19.125C101.234,-20.016 99.914,-20.461 98.461,-20.461C96.758,-20.461 95.906,-19.75 95.906,-18.328C95.906,-17.313 96.852,-15.82 98.742,-13.852L100.195,-12.305C102.352,-10.055 103.43,-8.242 103.43,-6.867C103.43,-4.898 102.484,-3.16 100.594,-1.652C98.703,-0.145 96.523,0.609 94.055,0.609C92.305,0.609 90.664,0.188 89.133,-0.656Z" style="fill-rule:nonzero;"/>
                <path d="M121.922,-7.453C122.313,-7.188 122.508,-6.875 122.508,-6.516C122.508,-6.031 122.008,-5.203 121.008,-4.031C118.336,-0.938 115.695,0.609 113.086,0.609C111.492,0.609 110.18,-0.023 109.148,-1.289C108.117,-2.555 107.602,-4.172 107.602,-6.141C107.602,-9.703 108.949,-13.309 111.645,-16.957C114.34,-20.605 117.008,-22.43 119.648,-22.43C121.555,-22.43 122.508,-21.406 122.508,-19.359C122.508,-17.063 121.395,-14.82 119.168,-12.633C116.941,-10.445 114.227,-8.922 111.023,-8.063C111.336,-4.297 112.82,-2.414 115.477,-2.414C118.102,-2.414 120.25,-4.094 121.922,-7.453ZM111.117,-10.922C111.57,-10.766 111.984,-10.688 112.359,-10.688C114.297,-10.688 115.992,-11.281 117.445,-12.469C118.898,-13.656 119.625,-15.047 119.625,-16.641C119.625,-18.469 118.695,-19.383 116.836,-19.383C115.492,-19.383 114.277,-18.582 113.191,-16.98C112.105,-15.379 111.414,-13.359 111.117,-10.922Z" style="fill-rule:nonzero;"/>
            </g>
        </g>
    </g>
</svg>
